<?xml version="1.0" standalone="no"?>
  <!DOCTYPE svg PUBLIC "-//W3C//DTD SVG 1.1//EN" "http://www.w3.org/Graphics/SVG/1.1/DTD/svg11.dtd" >
  <svg>
  <metadata>
  Created by font-carrier
  </metadata>
  <defs>
  <font id="MarbeliaEvolutions" horiz-adv-x="925" vert-adv-y="925" >
    <font-face
      
      font-family="Marbelia Evolutions"
      
      font-weight="400"
      
      font-stretch="normal"
      
      units-per-em="1000"
      
      ascent="750"
      
      descent="-250"
      
    />
      <missing-glyph />

      

      
      <glyph glyph-name="uni45" unicode="&#x45;" d="M478 339C469 341 461 344 453 349C221 456 40-134 299-98C384-88 472-30 525 35C543 56 558 78 563 101C573 129 591 147 604 144C611 143 615 129 608 101C587 19 523-81 440-153C325-251 163-302 60-179C19-131 1-67 3-9C14 197 191 418 341 426C309 449 287 541 360 605C355 617 353 619 351 630C349 644 351 660 356 677C364 710 400 695 395 674C390 655 389 646 393 634C450 679 512 702 573 696C635 692 659 652 652 613C644 563 592 512 515 515C491 515 464 522 439 530C439 530 421 540 421 539C392 464 439 446 486 396L487 395C487 395 525 361 518 344C509 328 479 341 479 341ZM464 565C630 527 605 768 440 576C439 574 465 566 464 565Z"  horiz-adv-x="516" vert-adv-y="1000"  />

      
      <glyph glyph-name="uni46" unicode="&#x46;" d="M479 392C558 406 643 395 684 313C684 313 731 415 669 456C637 476 571 475 504 453C531 516 555 555 568 580C571 587 573 592 575 597C662 551 793 475 872 594C910 649 846 700 846 700C803 581 586 675 554 685C464 706 363 711 334 623C326 601 333 580 346 563C356 551 366 541 376 539C384 537 391 539 397 544C403 548 407 554 406 560C406 566 401 569 394 569L384 570C371 573 366 579 366 588C366 597 370 605 380 616C388 624 399 630 414 635C488 652 449 592 435 558C383 432 323 312 271 186C236 115 185-4 93-20C30-30 52 53 65 84C70 103 85 126 106 159C124 191 137 209 137 214C138 216 137 220 134 220C128 220 124 218 118 215C102 207 86 196 69 179C20 128 1 67 13-5C21-46 40-74 70-89C269-187 413 235 479 392Z"  horiz-adv-x="639" vert-adv-y="1000"  />

      
      <glyph glyph-name="uni47" unicode="&#x47;" d="M317 283C214 296 214 281 303 249C338 235 359 233 398 235C398 235 384 230 372 223C360 216 342 201 338 200C287 125 175 79 151 194C121 339 303 660 479 652C642 644 502 263 317 283ZM244 2C200-74 136-161 101-193C42-246 81-37 244 2ZM22-102C-8-217 49-309 190-199C269-138 302-89 346-22L350-16C352-16 354-16 357-16C418-13 469 10 518 53C542 74 562 101 580 125C593 142 607 164 617 180C620 184 623 191 620 197C619 198 616 200 612 200C609 200 605 196 602 193C566 142 512 77 456 46C431 31 402 21 377 31C400 73 414 101 414 101L414 103L468 205C479 224 484 231 461 242C635 317 700 637 509 689C446 706 377 695 313 664C-98 471-96-178 289 97C284 85 277 75 272 66C268 57 263 50 259 43L254 43C152 36 46-15 22-102Z"  horiz-adv-x="529" vert-adv-y="1000"  />

      
      <glyph glyph-name="uni48" unicode="&#x48;" d="M96 68C35 55 50 141 60 173C64 189 79 216 97 248C119 280 127 300 128 303C128 307 127 308 124 310C121 310 115 308 107 306C91 299 77 285 58 267C13 217-1 154 14 82C26 40 44 12 77-3C208-36 283 63 321 153C345 208 365 255 382 297L384 297L384 299C425 304 468 306 505 299C485 255 466 209 449 165C415 88 408 26 417-24C422-61 440-86 466-98C472-101 479-104 490-104C491-105 495-105 498-105C500-105 502-105 503-105L507-105C506-95 505-86 505-76C503-36 513 24 540 99C546 120 550 136 556 153C620 308 701 463 782 608C800 645 786 666 746 656C716 652 692 636 667 620C620 544 578 460 540 376C507 375 468 369 428 359L426 359C426 359 421 358 410 355C451 446 476 503 487 518C535 604 505 713 385 703C333 699 294 657 286 629C280 605 283 587 296 568C307 554 316 547 326 544C334 541 341 544 349 548C356 553 357 557 357 562C357 569 354 574 346 576L335 577C323 580 319 585 319 594C319 601 323 609 331 621C341 629 356 636 368 639C443 657 408 592 392 557L265 274C232 205 186 84 96 68Z"  horiz-adv-x="621" vert-adv-y="1000"  />

      
      <glyph glyph-name="uni49" unicode="&#x49;" d="M87 67C27 53 46 139 56 172C61 187 72 213 93 245C112 278 122 299 122 301C123 306 122 307 117 307C115 308 110 307 102 304C86 297 71 283 56 266C9 215-8 151 9 80C18 38 36 9 69-6C215-37 281 63 315 151L484 517C531 601 501 712 384 702C331 697 293 656 284 627C279 604 281 584 293 566C303 553 312 544 324 543C331 540 338 541 345 547C350 550 353 555 353 561C353 568 350 573 343 574L333 574C321 578 313 583 313 591C315 599 321 608 330 620C340 628 352 634 367 638C440 656 403 591 389 555L258 273C225 200 178 82 87 67Z"  horiz-adv-x="369" vert-adv-y="1000"  />

      
      <glyph glyph-name="uni4a" unicode="&#x4a;" d="M443 318C406 242 366 169 322 117C272 55 213 12 154 23C96 33 60 84 60 141C60 161 64 179 74 198C83 224 79 238 67 236C60 234 49 223 37 198C-17 85-22-60 82-95C444-218 602 474 694 687C606 715 519 713 457 638C443 618 428 592 420 566C413 547 410 523 417 504C424 492 432 486 447 487C458 490 465 494 471 506C472 513 467 517 461 522C458 523 451 530 453 534C460 580 480 618 531 614C541 614 549 613 556 611C551 594 544 574 537 551C505 469 479 401 443 318Z"  horiz-adv-x="533" vert-adv-y="1000"  />

      
      <glyph glyph-name="uni4b" unicode="&#x4b;" d="M92 67C28 53 46 139 56 172C60 187 73 213 93 245C111 278 122 299 122 301C122 306 121 307 117 307C114 308 109 307 103 304C88 297 70 283 55 266C9 215-5 151 11 80C19 38 41 9 70-6C201-42 278 58 318 151C349 229 380 299 406 352C445 344 492 321 484 276C482 271 482 269 482 266C476 252 471 234 467 220C435 131 370-61 492-101C507-104 516-104 528-99C537-95 545-89 537-80C530-65 533-40 536-4C539 43 549 87 559 129C580 226 604 315 504 379C576 456 654 534 731 606C765 642 766 668 723 660C691 653 651 634 617 618L437 426C461 474 475 506 482 517C529 602 501 712 383 702C329 697 290 656 283 627C276 604 281 584 292 566C300 553 311 545 322 543C330 540 337 541 343 547C349 550 351 555 351 561C351 568 347 573 340 574L332 574C320 578 315 584 315 592C315 599 319 608 327 620C337 628 349 635 365 638C438 656 402 591 387 555L259 273C228 201 183 82 92 67Z"  horiz-adv-x="605" vert-adv-y="1000"  />

      
      <glyph glyph-name="uni4c" unicode="&#x4c;" d="M269 422C275 426 282 430 289 435C293 436 297 439 302 441L301 441C316 448 330 456 348 464C407 501 469 550 479 599C490 649 455 702 403 700C333 699 278 639 239 590C205 544 174 487 145 435C35 453 43 608 152 624C201 629 202 666 151 660C76 655 24 618-2 577C-38 521-20 452 36 418C57 405 89 396 126 396C29 217-94 41 123-76C248-143 387-79 417-17C446 43 399 89 399 89C406 0 96-35 111 78C130 194 212 324 269 422ZM297 474C322 514 348 560 376 598C392 621 454 678 421 608C396 553 348 508 297 474Z"  horiz-adv-x="429" vert-adv-y="1000"  />

      
      <glyph glyph-name="uni4d" unicode="&#x4d;" d="M93 67C31 53 50 139 60 172C68 187 81 213 100 245C120 278 132 299 132 301C134 306 132 307 128 307C124 308 120 307 113 304C95 297 81 281 63 266C14 215-1 151 11 80C21 38 40 9 72-6C199-37 279 58 321 151C343 195 360 236 378 273C419 329 469 402 490 423C545 489 594 537 640 568C644 568 644 566 641 562C565 448 381 186 452 53C465 33 488 22 521 18C528 18 532 18 536 22C545 23 550 27 549 34C531 173 640 324 737 435C808 510 859 558 896 580C903 585 906 584 903 578L871 522L808 401C737 270 666 113 676-29C680-98 794-128 779-80C773-62 776-35 787 9C804 71 829 142 869 226C931 354 951 383 1036 540C1119 692 1001 777 862 621C804 554 750 489 702 438C695 428 687 419 678 411C711 464 740 504 761 537C847 678 691 694 587 590C536 536 498 471 448 418C473 470 492 506 498 517C550 601 521 712 404 700C352 697 312 656 303 627C295 604 299 584 310 566C320 553 328 544 338 543C348 540 355 541 363 547C368 550 370 555 370 561C370 568 367 573 359 573L350 574C337 577 331 583 331 591C333 599 337 608 348 620C357 628 370 634 382 638C459 656 421 591 404 555L269 273C233 200 184 82 93 67Z"  horiz-adv-x="885" vert-adv-y="1000"  />

      
      <glyph glyph-name="uni4e" unicode="&#x4e;" d="M92 71C28 59 48 138 56 169C62 183 74 208 94 238C114 269 125 285 125 288C127 291 125 292 119 293C116 293 111 292 104 289C90 283 72 271 56 256C10 209-5 150 10 82C20 44 41 18 71 4C191-50 278 62 319 150L383 271C407 315 438 352 478 398C548 474 621 564 657 585C664 591 667 590 662 584L636 530L570 406C506 281 515 299 493 238C454 132 435 44 442-22C447-61 465-86 501-99C512-104 523-104 533-98C548-94 552-86 549-76C543-58 546-29 556 15C569 77 596 147 634 230C692 358 712 392 799 547C869 673 743 770 636 645C557 558 501 462 443 401L432 389C461 443 478 480 485 490C533 568 505 671 387 660C333 656 294 621 286 591C280 569 283 551 296 536C305 522 316 514 326 511C333 510 340 511 346 515C352 518 357 527 357 531C357 537 352 540 344 541L334 541C323 544 317 550 319 558C319 566 323 576 332 584C341 592 355 598 369 601C442 621 408 557 390 527L260 263C229 195 183 85 92 71Z"  horiz-adv-x="645" vert-adv-y="1000"  />

      
      <glyph glyph-name="uni4f" unicode="&#x4f;" d="M348 206C352 205 358 201 364 201C335 100 166-104 122 40C75 195 277 682 450 652C604 628 558 248 386 241L386 242C277 262 291 409 406 423C452 428 455 464 406 462C328 456 274 422 246 381C219 344 216 297 242 260C242 257 244 253 250 246C256 239 265 231 277 226C295 215 321 208 348 206ZM56 402C-166-182 312-280 493 213C501 216 506 219 513 222C659 307 679 636 480 693C298 746 112 554 56 402Z"  horiz-adv-x="545" vert-adv-y="1000"  />

      
      <glyph glyph-name="uni50" unicode="&#x50;" d="M352 267C766 337 823 689 621 702C583 704 535 697 494 668C472 693 421 707 352 700C297 697 262 656 251 627C246 604 250 584 264 564C273 553 283 544 293 541C302 540 309 541 316 547C323 550 324 555 324 561C324 568 319 573 313 573L302 574C290 577 284 583 284 591C284 599 288 608 297 620C309 628 319 634 332 638C408 655 369 595 354 560L211 217C186 153 165 78 97 67C38 53 39 139 43 172C44 187 51 213 64 245C79 278 85 299 85 301C85 306 83 307 80 307C76 308 69 307 64 304C50 297 36 283 23 266C-12 215-15 151 13 80C31 38 55 9 91-6C276-45 309 138 352 267ZM381 332L501 613C528 652 550 660 567 657C675 650 586 389 381 332Z"  horiz-adv-x="574" vert-adv-y="1000"  />

      
      <glyph glyph-name="uni51" unicode="&#x51;" d="M355 206C359 205 364 201 368 201C361 171 339 131 312 94C273 151 216 185 126 154C139 252 187 369 238 471C337 673 550 766 550 483C550 369 489 245 394 241L394 242C281 262 297 409 409 423C457 428 460 464 409 462C332 456 278 422 252 381C224 344 223 297 245 260C245 257 249 253 256 246C263 239 271 231 281 226C301 215 324 208 355 206ZM132 89C160 180 244 67 253 29C201-15 150-32 129 40L128 41C126 55 126 73 132 89ZM264-84C267-160 275-236 364-248C519-272 636-106 636-106C636-106 610-95 595-105C531-145 408-186 376-75C372-54 366-35 361-14C413 37 461 114 500 213C506 216 511 219 517 222C665 307 683 636 487 693C304 746 118 554 59 402C-89 7 81-167 264-84Z"  horiz-adv-x="569" vert-adv-y="1000"  />

      
      <glyph glyph-name="uni52" unicode="&#x52;" d="M504 274C504 271 502 268 502 265C496 250 490 235 485 219C454 131 384-61 507-100C520-103 531-103 543-98C553-94 557-88 553-79C545-65 548-39 553-3C557 43 565 86 576 129C600 226 623 314 525 378C538 384 551 392 565 401C641 448 715 518 727 609C733 656 718 697 667 701C626 704 579 687 537 665C517 692 468 706 397 700C344 697 304 655 295 624C288 601 289 582 301 563C311 551 319 543 330 540C338 537 345 540 352 544C358 549 361 554 361 560C361 565 358 569 351 569L340 570C328 573 324 580 324 589C324 598 330 607 338 616C350 625 361 631 374 635C450 655 408 593 391 559L229 217C201 154 174 78 106 65C44 53 53 141 57 171C61 188 69 213 85 245C99 278 108 296 108 299C108 304 106 305 102 305C99 305 95 305 89 301C73 294 58 281 44 265C5 214-2 152 24 79C37 39 61 10 95-6C220-32 280 42 319 137L403 340C446 346 517 338 504 274ZM433 397C439 409 445 420 450 432C472 476 527 563 541 612C610 701 672 646 584 521C556 479 489 429 433 397Z"  horiz-adv-x="621" vert-adv-y="1000"  />

      
      <glyph glyph-name="uni53" unicode="&#x53;" d="M334 622C330 632 328 634 327 646C325 661 327 677 331 694C338 727 375 713 371 691C367 672 365 664 370 650C426 698 488 719 550 714C612 708 636 669 628 628C621 579 569 527 491 530C468 530 440 537 414 549C414 547 398 556 398 554C368 479 414 461 462 412L464 410C628 255 524 46 352-45C-82-277-110 443 257 301C318 276 407 209 266 253C7 335 49 34 209 58C350 79 464 237 377 366C318 449 240 537 334 622ZM440 582C605 544 582 785 416 592C414 590 442 582 440 582Z"  horiz-adv-x="561" vert-adv-y="1000"  />

      
      <glyph glyph-name="uni54" unicode="&#x54;" d="M376 599C394 590 413 579 436 568C433 563 432 559 429 554L256 184C225 112 178-7 88-23C26-35 43 50 52 82C59 99 71 123 92 157C111 190 121 207 121 210C122 216 121 217 116 217C113 219 109 217 102 214C86 204 69 193 52 177C7 125-7 62 7-10C16-51 36-79 68-94C213-126 279-25 314 62L523 517C528 523 531 529 533 534C585 527 636 540 675 596C711 653 648 704 648 704C602 585 387 678 354 687C264 710 160 713 132 625C125 602 131 583 144 565C154 553 164 544 174 541C183 540 190 541 196 546C201 550 204 556 204 562C204 566 200 570 191 570L183 572C171 576 165 582 164 590C164 599 168 608 177 618C187 627 197 632 211 637C223 638 295 649 376 599Z"  horiz-adv-x="457" vert-adv-y="1000"  />

      
      <glyph glyph-name="uni55" unicode="&#x55;" d="M114-103C190-104 289-31 325 62C397 221 506 453 591 605C610 640 602 656 563 649C531 643 501 631 475 615C403 500 324 302 270 184C236 112 204 5 114-10C19-28 96 122 109 152L274 517C322 599 292 708 175 700C122 697 84 656 75 624C69 602 72 582 86 563C95 551 103 543 114 540C122 537 129 540 136 546C141 549 144 554 144 560C144 566 141 569 134 569L123 570C111 573 105 580 106 589C106 598 111 607 120 616C131 625 142 631 156 635C230 656 195 589 178 554L38 243C-6 145-42-97 114-103Z"  horiz-adv-x="439" vert-adv-y="1000"  />

      
      <glyph glyph-name="uni56" unicode="&#x56;" d="M147-65C299 78 426 409 500 580C503 589 507 599 512 608C549 706 424 644 382 602C288 328 205 173 97 30L225 518C255 602 203 711 88 703C35 700 6 658 3 627C2 604 9 585 26 566C38 553 51 546 61 543C70 541 75 543 81 547C87 551 88 557 87 562C84 568 80 572 74 572L64 573C51 577 44 583 41 592C39 601 42 609 51 619C59 628 68 634 81 637C153 658 130 592 123 557L26 126C22 106 16 81 9 56C5 34-1 5 2-17C11-87 58-134 147-65Z"  horiz-adv-x="375" vert-adv-y="1000"  />

      
      <glyph glyph-name="uni57" unicode="&#x57;" d="M315 182C296 119 257 44 262-19C268-88 313-136 405-68C566 76 717 452 799 622C805 632 809 641 812 652C855 747 726 688 683 644C593 414 495 174 406 49C276-140 482 452 495 475C501 484 507 494 511 504C563 599 426 540 380 497C249 223 224 216 99 73L265 517C308 599 270 708 151 701C99 697 64 656 58 624C54 602 58 582 72 565C83 551 93 543 103 541C112 537 119 540 125 546C131 549 134 554 132 560C132 566 128 569 121 570L111 570C99 576 93 580 92 590C92 598 96 607 103 616C114 625 125 632 138 635C213 656 180 589 167 554L46 216C38 194 31 170 21 146C13 123 4 94 2 72C-1-133 266 110 315 182Z"  horiz-adv-x="656" vert-adv-y="1000"  />

      
      <glyph glyph-name="uni58" unicode="&#x58;" d="M82 65C17 53 64 141 83 171C96 188 116 213 147 245C177 278 193 296 194 299C198 304 197 305 193 305C190 305 184 305 177 301C158 294 138 281 116 265C54 214 17 152 6 79C1 39 13 10 38-6C172-36 273 63 338 152L396 224C407 158 420 97 427 55C441-12 474-112 568-98C599-95 561-61 544-9C517 78 497 203 475 325L629 517L727 662C736 675 636 694 602 644C549 576 504 508 458 440C439 549 461 669 310 658C256 655 219 613 210 582C204 560 207 540 219 521C229 510 239 500 248 497C256 495 264 497 270 504C276 507 279 512 279 518C279 524 275 527 269 527L258 529C246 531 240 537 240 547C240 556 246 565 255 573C319 631 335 563 347 510C354 462 361 419 378 330C361 310 345 289 328 268C242 167 151 76 82 65Z"  horiz-adv-x="599" vert-adv-y="1000"  />

      
      <glyph glyph-name="uni59" unicode="&#x59;" d="M540 625C482 596 375 239 325 200C272 125 158 79 134 194C122 253 135 343 177 426L177 426L218 517C267 599 238 708 120 700C67 697 29 656 20 624C13 602 16 582 29 563C38 551 47 543 58 540C67 537 74 540 80 546C87 549 90 554 88 560C88 566 85 569 77 569L68 570C56 573 51 580 51 589C51 598 55 607 64 616C74 625 87 631 100 635C176 656 140 589 124 554L67 429L67 429C-66 184-7-101 274 95C268 83 261 73 255 63C252 56 248 49 244 42L238 42C135 36 28-16 3-104C-26-219 31-313 174-202C252-139 286-91 329-23L333-17C336-17 339-17 342-17C402-15 457 10 503 52C527 73 548 101 566 125C578 142 594 161 602 181C605 185 608 191 605 196C604 199 602 200 599 200C595 200 592 196 588 193C551 141 499 76 441 43C418 29 387 19 362 29C386 72 401 101 401 101L399 101L455 206L647 640C611 646 577 641 540 625ZM227 1C185-75 120-163 83-196C25-250 64-38 227 1Z"  horiz-adv-x="518" vert-adv-y="1000"  />

      
      <glyph glyph-name="uni5a" unicode="&#x5a;" d="M652 540C686 577 731 635 731 691C731 700 728 710 718 708C708 707 702 703 699 695C698 689 694 680 689 674C675 661 652 653 634 650C612 644 589 649 567 656C557 661 547 665 538 669L505 685C447 708 390 706 334 677C286 652 248 616 224 566C208 533 195 492 211 455C217 440 228 433 245 436C259 437 269 443 273 456C275 465 270 472 263 476C259 479 250 484 251 490C264 566 323 589 394 588C428 588 460 582 491 572C509 566 537 557 551 544C551 543 553 543 553 541C530 520 508 491 486 468C443 414 397 361 354 308C295 237 237 167 179 95C153 63 126 33 99 3C89-7 80-15 71-22C46-32 27-51 11-73C8-79 1-91 11-94C23-95 48-84 59-79C66-79 80-68 85-65C134-42 188-28 243-34C298-38 373-65 427-84C514-110 603-112 654-23C658-13 664 1 658 13C656 17 654 22 649 23L648 23L646 23C638 13 628 5 617 0C593-13 567-16 541-10C535-7 515 5 509 8C482 24 453 42 427 58C380 85 328 106 275 92C270 92 266 91 262 89Z"  horiz-adv-x="639" vert-adv-y="1000"  />

      
      <glyph glyph-name="uni61" unicode="&#x61;" d="M212 108C211 81 211 50 228 29C271-17 315-6 359 31C394 63 424 107 446 150C455 163 484 218 479 234C476 241 468 239 463 237L463 237L432 183C414 157 400 126 382 99C374 88 354 57 336 55C328 54 318 55 315 63C311 70 312 88 315 95C317 116 327 139 335 159C354 206 373 255 393 300L393 300L441 407C439 408 432 412 428 413C411 419 394 421 379 421C362 420 343 416 330 411C196 462 94 336 45 219C28 184 15 145 7 108C2 83 2 52 16 31C38 0 89-10 124 7C163 22 188 74 212 108ZM186 247C194 259 274 414 302 384C292 358 278 318 261 274C230 187 175 75 130 56C118 50 118 70 119 79C122 117 168 211 186 247Z"  horiz-adv-x="403" vert-adv-y="1000"  />

      
      <glyph glyph-name="uni62" unicode="&#x62;" d="M257 425C277 433 305 448 333 466C392 500 452 547 463 597C472 645 438 696 386 696C321 692 266 635 228 586C190 535 156 469 128 414C98 360 69 306 42 249C20 197-4 132 6 75C10 50 22 27 42 16C47 13 50 10 55 9C60 7 66 5 73 3C98-2 127-2 153 0C177 5 206 10 226 25C259 46 286 88 304 118C319 141 329 167 341 192C383 203 423 228 460 249C468 255 472 263 465 270C459 279 448 272 441 269C414 252 384 232 354 221C368 262 399 344 390 386C380 416 348 424 320 421C264 416 196 312 196 262C196 238 205 213 224 202C199 153 173 97 138 57C132 52 121 42 113 42C106 39 102 43 101 47C100 56 100 63 100 73C103 98 112 125 118 151C128 184 147 221 164 253C192 312 225 369 257 425ZM234 228C226 238 223 248 224 261C230 330 288 384 244 255C241 246 237 237 234 228ZM287 474C310 513 335 557 361 596C376 616 437 671 408 605C382 551 335 507 287 474Z"  horiz-adv-x="363" vert-adv-y="1000"  />

      
      <glyph glyph-name="uni63" unicode="&#x63;" d="M352 202C321 149 277 88 224 55C202 42 174 31 148 42C136 45 130 54 123 63C117 74 116 87 117 97C121 162 149 228 179 283C193 311 210 338 229 361C234 369 249 386 257 388C263 391 268 390 273 386C281 376 276 359 273 351C260 314 235 272 214 241C213 238 219 234 222 232C226 230 231 229 238 228C255 222 273 230 289 241C310 258 327 280 338 305C347 326 356 353 347 376C341 396 322 408 301 415C276 424 251 425 226 420C157 407 109 360 70 305C46 267 27 229 14 186C4 157-3 116 4 87C11 59 27 37 47 20C75 2 105-5 136-4C194-1 244 22 285 63C305 84 324 109 337 134C347 150 358 170 364 188C367 192 371 200 364 204C363 207 361 209 358 209C354 209 353 204 352 202Z"  horiz-adv-x="311" vert-adv-y="1000"  />

      
      <glyph glyph-name="uni64" unicode="&#x64;" d="M413 345C425 369 438 391 450 414C477 465 514 529 531 586C576 730 400 716 332 615C290 548 306 485 312 414C186 452 89 334 39 219C26 184 12 145 4 108C-1 83-2 52 14 31C36 0 87-10 121 7C158 20 184 70 206 106C206 92 206 83 207 73C213 42 228 17 258 5C268 0 274-1 282-2L292-2C293-2 295-2 297-2C321-2 343 7 364 20C406 54 451 134 477 183C482 192 488 204 489 215C489 221 492 231 482 231C477 232 471 228 466 221C446 195 430 167 417 138C403 115 368 54 335 52C325 50 320 56 319 65C315 79 320 104 321 115C333 196 374 272 413 345ZM246 249C228 211 217 174 196 136C172 97 147 65 127 56C113 50 115 70 115 79C118 117 165 211 184 247C188 257 231 336 267 371C290 396 320 387 295 351C278 318 260 283 246 249ZM342 443C340 465 381 637 424 635C425 635 424 627 422 626C409 587 390 545 372 508C362 486 351 466 342 443Z"  horiz-adv-x="409" vert-adv-y="1000"  />

      
      <glyph glyph-name="uni65" unicode="&#x65;" d="M133 189C137 188 142 187 144 186C159 181 172 181 187 184C222 191 251 210 277 234C302 258 322 283 336 318C341 335 346 355 339 372C331 394 313 406 294 413C268 421 243 421 220 416C152 405 103 358 68 301C43 266 23 228 11 184C2 155-5 116 2 87C9 57 23 37 47 20C71 2 99-5 131-4C190-1 239 22 277 63C298 83 314 109 328 134C338 150 350 169 355 187C359 192 360 197 356 203C354 206 353 206 350 207C346 207 344 203 341 200C312 149 271 88 220 55C196 42 168 31 142 42C132 45 125 54 120 62C114 74 111 84 114 97C117 128 124 160 133 189ZM144 215C152 239 162 261 172 282C189 309 204 335 223 359C228 365 241 382 250 386C256 388 262 387 266 382C274 372 268 358 266 345C254 316 241 283 223 257C205 230 179 196 144 215Z"  horiz-adv-x="299" vert-adv-y="1000"  />

      
      <glyph glyph-name="uni66" unicode="&#x66;" d="M274 424C336 452 464 522 479 596C489 642 453 693 403 693C337 689 282 634 247 584C208 533 173 468 144 413C141 407 137 400 133 393L91 393C83 393 74 387 74 380L74 380C74 372 83 369 91 369L122 369C85 295 29 177 8 132C-16 81-40 16-29-42C-24-67-15-89 8-104C11-106 15-107 18-108C23-111 30-113 36-114C48-116 59-118 72-118L72-118C205-113 258 175 260 269C260 320 254 352 248 369L441 369C449 369 457 372 457 380L457 380C457 387 449 393 441 393L256 393C262 405 269 414 274 424ZM224 333C254 193 112-88 72-78L72-76C69-76 66-73 66-68C63-61 63-54 64-47C69-18 76 8 83 35C91 65 111 106 127 135C145 174 189 262 224 333ZM302 473C327 512 352 556 377 593C393 615 453 670 424 604C399 549 352 505 302 473Z"  horiz-adv-x="270" vert-adv-y="1000"  />

      
      <glyph glyph-name="uni67" unicode="&#x67;" d="M285 38C309 91 334 145 354 202L355 206L355 206C369 241 383 276 398 309L398 309C398 309 432 390 444 406C440 408 433 411 428 413C412 419 396 421 379 421C362 420 346 416 331 411C196 462 94 336 44 219C29 184 15 145 6 108C2 83 2 52 18 31C37 5 74-5 106 0C99-4 91-9 84-15C29-49-30-97-33-146C-39-192 1-246 53-244C116-242 167-184 198-134C224-96 247-47 267-1C314 7 354 27 389 63C408 83 423 109 440 134C449 150 460 169 467 187C468 192 469 197 467 203C466 206 462 206 460 207C454 207 453 203 451 200C422 149 380 88 328 55C316 46 300 39 285 38ZM133-24C112-62 91-107 67-143C55-165 0-220 22-154C43-99 86-57 133-24ZM187 247C193 257 246 359 282 382C291 388 308 391 300 376C291 352 277 315 264 274C231 187 174 75 130 56C118 50 119 70 119 79C121 117 170 211 187 247Z"  horiz-adv-x="402" vert-adv-y="1000"  />

      
      <glyph glyph-name="uni68" unicode="&#x68;" d="M251 425C271 433 300 448 326 466C387 500 446 547 457 597C467 645 432 696 381 696C316 692 261 635 223 586C186 535 151 469 121 414C94 360 64 306 37 249C15 197-10 132 2 75C5 50 17 27 37 16C41 13 44 10 49 9C54 7 60 5 68 3C76 2 85 0 94-1C108 3 102 16 97 31C94 42 94 56 95 63C95 65 95 69 95 73C98 91 102 112 107 132C137 197 175 269 228 312C229 315 231 316 234 316C236 318 238 316 238 315C239 314 238 312 236 309C225 290 210 258 190 203C172 157 166 114 169 75C172 37 188 14 213 3C228-1 243-2 258 2C271 7 284 13 299 24C323 45 350 80 376 124L395 157C406 171 412 184 415 188C428 211 434 222 431 223C424 230 412 215 389 186C389 187 376 167 345 121C324 90 305 68 290 55C279 45 270 45 265 55C251 81 275 121 286 145C302 181 332 240 366 322C381 354 384 384 366 405C323 452 262 393 239 363C213 341 196 320 181 300C202 342 228 384 251 425ZM279 474C304 513 326 557 354 596C370 616 431 671 401 605C375 551 329 507 279 474Z"  horiz-adv-x="356" vert-adv-y="1000"  />

      
      <glyph glyph-name="uni69" unicode="&#x69;" d="M26 206C9 166-1 120 3 75C5 43 21 14 53 2C66-4 82-4 98 0C115 3 127 13 141 22C173 50 199 89 221 125L240 158L261 189C266 193 286 223 276 230C266 238 237 196 230 189L229 188L229 188C228 184 222 177 219 171C208 157 198 140 188 125C173 104 152 74 129 57C125 55 121 52 117 52C113 52 109 54 107 57C101 70 107 97 113 110C115 114 117 120 117 121C123 134 127 147 134 160C144 183 154 206 206 325C214 350 214 379 195 400C174 416 141 424 109 420C106 393 87 345 63 293L63 293ZM253 655C220 655 193 629 193 597C193 564 220 537 253 537C285 537 310 564 310 597C310 629 285 655 253 655Z"  horiz-adv-x="208" vert-adv-y="1000"  />

      
      <glyph glyph-name="uni6a" unicode="&#x6a;" d="M91 38C134 145 189 244 218 351C218 369 214 386 202 400C183 416 147 424 116 420C114 393 95 345-39 26C-58 17-84 3-111-15C-167-49-222-97-228-146C-232-192-192-246-140-244C-77-242-27-184 4-134C31-96 53-47 73-1C120 7 160 27 194 63C214 83 231 109 244 134C255 150 265 169 271 187C275 192 276 197 273 203C270 206 268 206 265 207C261 207 258 203 257 200C228 149 186 88 134 55C122 46 106 39 91 38ZM246 655C215 655 188 629 188 597C188 564 215 537 246 537C278 537 307 564 307 597C307 629 278 655 246 655ZM-61-24C-83-62-103-107-128-143C-139-165-193-220-171-154C-150-99-107-57-61-24Z"  horiz-adv-x="214" vert-adv-y="1000"  />

      
      <glyph glyph-name="uni6b" unicode="&#x6b;" d="M170 222C166 186 161 138 164 100C167 69 176 24 206 7C224-4 248-1 268 3C290 8 313 17 331 35C364 68 412 163 435 206C437 212 439 220 438 229C436 237 429 237 422 231C405 219 384 181 374 162C363 138 342 106 319 91C282 69 205 219 266 247C306 261 357 280 386 312C409 332 421 358 417 387C395 462 297 394 269 370C225 335 191 290 176 272C174 271 173 270 172 269L173 271L172 270C172 270 166 262 157 249L159 253C190 312 220 369 254 425C274 433 301 448 331 466C386 500 448 547 459 597C468 645 435 696 383 696C316 692 263 635 225 586C189 535 153 469 123 414C96 360 66 306 40 249C17 197-8 132 3 75C7 50 19 27 40 16C44 13 47 10 50 9C58 7 62 5 68 3C76 2 86 0 96-1C112 3 106 16 100 31C96 42 96 56 97 63C97 65 97 69 97 73C100 90 103 108 110 125L111 130C123 162 148 193 170 222ZM282 474C305 513 331 557 358 596C373 616 434 671 402 605C377 551 331 507 282 474ZM197 258C220 284 244 311 271 334C282 342 293 353 305 359C320 363 333 365 334 350C335 330 306 309 292 300C269 284 242 272 215 263C210 261 205 259 197 258Z"  horiz-adv-x="366" vert-adv-y="1000"  />

      
      <glyph glyph-name="uni6c" unicode="&#x6c;" d="M260 426C281 436 309 450 339 467C395 503 457 549 467 598C476 647 444 698 392 697C325 696 272 636 235 587C198 538 163 474 132 416C89 340-44 112 18 24C26 17 36 10 47 7C50 3 54 3 57 2C69-1 82-1 94 0C115 0 138 5 158 13C179 19 200 37 217 54C233 70 251 91 262 114C280 139 303 177 314 204C317 211 318 219 312 222C303 230 296 218 291 211C280 197 270 180 259 163C243 138 227 114 209 91C196 73 176 57 157 44C138 34 114 22 106 52C108 64 110 79 112 91C128 204 207 332 260 426ZM291 476C314 516 339 560 368 597C379 617 442 672 410 606C385 554 339 509 291 476Z"  horiz-adv-x="252" vert-adv-y="1000"  />

      
      <glyph glyph-name="uni6d" unicode="&#x6d;" d="M129 420C127 393 107 350 107 345C107 345 107 345 107 345L100 334C72 274 46 218 21 159C12 138 7 117 6 96C1 79 4 57 12 42C23 18 46 7 72 2C82 0 91-1 100 2C104 2 110 3 111 8C112 10 110 17 109 18C104 24 103 31 102 37C102 45 108 64 110 75L111 75L111 77C130 128 155 178 185 223C204 257 232 292 260 318C261 319 264 320 266 320C266 320 266 320 267 320C267 319 266 316 265 315C247 284 231 240 216 207C203 168 182 109 184 65C186 2 237-9 293 2L294 2L294 5C287 34 291 62 299 90C303 104 306 117 312 131L313 134C322 158 332 180 343 203C346 210 352 218 357 223C377 257 403 293 433 318C434 319 435 320 436 320C436 320 437 320 437 320C437 319 436 316 436 315C417 287 401 240 389 207C374 167 363 120 366 77C369 44 384 16 416 2C430-2 446-2 461 2C478 5 492 13 504 24C538 52 564 90 586 126C592 136 600 149 608 159L628 191C629 195 651 229 644 232C630 239 602 197 596 191C594 189 592 188 592 187C590 184 587 180 586 175C574 159 563 141 552 126C538 106 515 75 494 59C490 56 486 54 480 54C477 54 473 55 472 59C464 73 472 98 477 112C478 115 480 121 480 124C486 136 492 149 498 162C522 213 548 267 570 319C583 345 589 377 570 406C521 445 460 397 439 372C428 360 416 345 406 335C414 359 415 384 400 406C349 445 290 400 267 372L227 325C230 334 231 342 232 351C232 369 227 386 213 400C194 416 161 424 129 420Z"  horiz-adv-x="568" vert-adv-y="1000"  />

      
      <glyph glyph-name="uni6e" unicode="&#x6e;" d="M127 419C126 393 105 345 105 345L104 345C104 344 104 344 104 343L98 332C72 272 46 215 20 158C11 136 5 116 2 95C1 77 2 56 10 39C23 17 46 7 72 0C79-1 89-1 98-1C102 0 107 2 109 7C113 9 107 16 106 18C102 24 100 29 100 37C100 46 106 64 108 75C128 126 152 177 180 222C202 253 229 290 256 315C257 316 258 319 262 319C262 319 265 319 265 319C265 318 262 315 259 314C242 283 228 239 215 206C199 166 188 120 193 75C197 43 207 14 241 2C256-4 272-4 287 0C301 3 317 13 328 22C362 50 389 89 411 125L430 158L450 189C453 193 474 223 466 230C453 238 424 196 420 189L420 188L420 188C416 184 411 177 409 171C398 157 388 140 378 125C362 104 340 74 318 57C316 55 311 52 304 52C300 52 299 54 296 57C290 70 296 97 300 110C303 114 304 120 307 121C312 134 318 147 324 160C348 211 371 264 394 318C407 344 412 376 394 403C343 446 282 397 265 370C250 355 238 340 224 325C225 333 228 341 228 350C229 365 222 384 211 396C199 408 184 415 168 419C155 420 141 421 127 419Z"  horiz-adv-x="381" vert-adv-y="1000"  />

      
      <glyph glyph-name="uni6f" unicode="&#x6f;" d="M361 258C397 259 437 270 473 284C476 288 481 290 485 295C486 298 488 302 486 306C485 311 481 312 476 314C473 314 467 314 463 311C433 297 399 287 366 283C372 312 377 354 365 380C336 436 205 436 189 375C132 365 90 332 61 284C30 239 14 184 6 128C0 84 7 39 49 14C76-2 108-4 140 0C173 5 205 17 232 42C292 100 336 174 361 258ZM254 302C253 302 253 305 252 305C235 316 221 333 223 354C223 362 226 370 230 377C238 387 246 391 256 394C261 394 262 394 264 394C271 391 270 375 270 369C267 345 262 323 254 302ZM199 323C210 305 223 290 241 281L248 279C234 232 213 188 192 145C178 120 158 74 140 54C135 46 124 36 118 36C112 35 108 47 108 54C108 80 128 136 138 163C154 215 173 271 199 323Z"  horiz-adv-x="369" vert-adv-y="1000"  />

      
      <glyph glyph-name="uni70" unicode="&#x70;" d="M213 325C217 334 217 341 218 351C218 367 213 386 202 397C191 411 176 416 158 420C147 421 132 424 121 421C119 394 98 345 98 345L98 345C98 345 98 345 98 345C97 342 95 336 93 334C60 261 33 184 4 110L-88-118C-96-139-100-159-101-182C-104-200-104-220-95-235C-83-258-63-271-35-274C-27-276-2-280 2-270C4-265-1-260-2-258C-4-253-7-247-7-238C-8-229-1-209 2-201L79-6L87 13C87 10 87 10 89 9L91 16L101 5L101 5C120-1 139-2 155-2C257 2 332 104 374 200C388 237 403 272 412 312C415 336 417 367 401 388C377 419 326 430 294 413C261 400 233 358 213 325ZM169 169C187 207 198 246 218 282C242 322 267 353 288 362C299 369 299 350 299 341C296 301 248 207 229 171C226 163 184 83 149 46C124 22 96 34 119 69C137 100 154 135 169 169Z"  horiz-adv-x="375" vert-adv-y="1000"  />

      
      <glyph glyph-name="uni71" unicode="&#x71;" d="M349 193C364 235 382 275 402 317C411 340 430 389 439 413C437 416 433 417 430 418C396 430 361 433 329 416C304 425 275 429 247 424C187 413 140 376 100 330C75 297 58 260 39 223C24 186 10 145 2 109C-1 82-1 55 13 32C28 15 44 7 66 4C84 1 106 1 122 8C141 15 155 31 167 47C153 12 140-27 123-61C116-80 111-99 104-113C95-134 89-154 88-177C86-195 86-215 95-231C106-253 126-266 153-269C158-271 163-271 170-271C186-273 203-268 217-260C277-224 280-116 287-56C292-10 300 50 315 95C325 122 338 150 364 165C385 175 406 179 429 175C441 174 458 198 438 201C406 207 372 205 345 186ZM265-10C257-73 245-143 218-198C205-228 184-225 190-196ZM304 387C274 316 247 236 208 168C167 97 115 50 115 78C118 119 167 214 185 249C202 277 253 381 283 396C292 400 306 401 304 387Z"  horiz-adv-x="386" vert-adv-y="1000"  />

      
      <glyph glyph-name="uni72" unicode="&#x72;" d="M146 379C170 369 195 370 221 377C170 297 110 188 97 95C93 65 100 42 118 20C138 0 166-5 195-1C244 7 280 47 304 89C320 110 330 132 344 157C345 159 375 212 364 213C359 215 354 212 349 207C322 166 288 110 258 73C249 62 235 50 224 47C216 46 212 47 209 56C201 75 227 136 234 155C248 184 264 213 280 243C292 264 309 290 320 315C329 340 342 377 324 403C280 443 244 403 208 402C190 396 174 402 160 412C167 424 172 434 173 446C174 456 174 466 171 475C166 484 157 489 147 491C138 491 133 489 128 485C120 482 113 475 110 468C99 448 102 425 113 406L118 400C96 338 68 272 41 213C37 203 29 187 28 174C28 168 28 159 37 160C43 160 50 169 56 174C64 186 68 197 77 212C79 221 84 231 86 240C108 287 127 333 146 379Z"  horiz-adv-x="304" vert-adv-y="1000"  />

      
      <glyph glyph-name="uni73" unicode="&#x73;" d="M193 37C276 100 289 189 300 287C304 322 306 359 307 394C307 403 316 457 335 445C340 442 340 439 337 436C334 431 333 424 334 415C335 412 340 407 347 405C351 403 356 402 362 405C368 407 372 412 374 419C379 451 353 482 323 486C300 489 274 486 254 475L251 474C244 473 241 468 236 466C205 446 182 421 161 394C129 345 97 293 72 243C63 249 56 249 44 246C19 237 11 206 7 183C1 158 1 130 7 106C18 56 43 5 97 0C138-6 177-4 215 8C298 36 340 106 383 177C386 181 413 220 395 220C382 221 369 213 364 203L337 155C315 117 274 68 236 47C224 43 210 39 193 37ZM193 380C191 370 190 360 189 350L183 309C173 252 157 158 130 107C120 89 108 70 89 68C76 65 62 73 53 83C39 96 35 112 37 131C58 147 71 167 79 191C106 244 146 323 183 367C187 371 190 376 193 380Z"  horiz-adv-x="328" vert-adv-y="1000"  />

      
      <glyph glyph-name="uni74" unicode="&#x74;" d="M315 511C333 535 358 565 385 575C390 578 395 583 390 588C389 591 388 593 385 597C372 609 352 613 335 610C308 610 282 605 258 593C241 586 223 572 208 560C193 548 176 535 160 526C135 516 110 511 85 511C75 511 69 508 69 499C69 487 75 484 85 484L157 484L134 441C104 382 73 322 43 262C19 206-8 135 7 74C11 42 28 16 59 2C64-2 75-4 85-5C89-5 91-5 94-5C95-5 97-6 100-5C125-5 150 3 168 19C213 54 263 140 289 189C297 202 302 213 302 228C305 232 305 241 297 243C288 243 283 239 279 231C260 204 242 174 227 144C211 118 175 54 139 52C130 50 123 56 121 68C118 80 123 107 125 118C131 162 151 210 166 249C204 328 246 412 294 484L372 484C381 484 401 485 401 499C401 503 398 505 395 508C388 511 379 511 375 511L315 511Z"  horiz-adv-x="243" vert-adv-y="1000"  />

      
      <glyph glyph-name="uni75" unicode="&#x75;" d="M202 99C202 74 204 43 222 22C240 2 264-4 291-2C315 0 338 9 359 20C393 43 428 112 446 147C454 162 488 215 481 234C477 241 470 239 465 237L464 237L433 181C419 162 410 141 398 124C393 115 387 106 382 97C373 83 352 54 334 47C324 46 315 47 313 57C306 65 308 81 311 90C315 112 323 135 331 157C355 211 376 267 401 322L401 322C401 322 427 377 446 408C401 431 324 425 300 379C276 323 251 267 228 211C212 177 174 97 145 74C98 37 131 126 137 139C149 184 169 229 191 269L191 269L207 316C210 328 211 338 211 351C211 369 204 386 192 397C173 415 142 424 113 420C112 393 90 345 90 345L90 345C90 345 90 345 90 344L84 333C76 311 66 284 58 263L58 263C40 222 24 181 15 138C6 109 1 73 8 43C17 19 33 3 58-1C112-10 150 20 177 63C188 75 194 89 202 99Z"  horiz-adv-x="396" vert-adv-y="1000"  />

      
      <glyph glyph-name="uni76" unicode="&#x76;" d="M252 109C252 91 258 73 275 62C288 50 309 54 325 60C353 70 378 112 393 135C402 150 413 166 420 181C426 189 432 200 436 210C442 219 447 229 450 239C451 244 453 255 445 253C438 252 433 247 429 243L411 215C406 211 401 204 398 197C389 184 378 169 368 153C357 136 338 106 321 92C314 89 303 81 295 89C287 95 285 109 285 116C284 147 295 177 309 203L332 241C341 255 347 267 354 282C368 312 379 352 363 384C341 428 276 425 243 413L248 411C252 407 260 400 263 393C273 372 271 350 267 326C251 258 216 188 179 128C169 114 134 62 115 60C103 59 109 75 110 81L203 316C205 328 206 338 206 351C206 369 201 386 190 397C171 415 139 424 110 420C109 393 88 345 88 345L85 345L85 344L81 333C58 272 36 213 14 157C5 135 1 115 1 92C1 75 2 55 10 38C25 16 46 7 71 0C120-9 165 25 198 57C216 79 234 99 252 121Z"  horiz-adv-x="377" vert-adv-y="1000"  />

      
      <glyph glyph-name="uni77" unicode="&#x77;" d="M467 140C444 109 417 81 388 55C367 36 335 10 307 2C283-5 259-9 240 3C216 17 205 38 202 63C199 75 201 90 202 104L183 74C163 44 136 17 104 3C62-14 36 2 13 37C4 52 2 74 2 91C2 114 10 134 18 155C37 212 60 271 83 332L91 343C91 343 91 344 91 344L92 345C92 345 112 393 113 420C125 421 134 420 148 419C163 415 180 408 192 396C203 384 209 365 209 350C209 336 206 326 204 315L113 84C112 79 109 68 110 62C112 56 118 57 123 59C132 63 142 74 149 83C193 144 224 203 251 272L266 319C274 341 280 370 273 394L272 395L274 396C289 397 302 396 316 391C329 387 344 377 354 367C365 358 373 344 378 332C384 319 386 305 379 290C365 239 346 184 323 132C315 118 308 104 305 88C304 83 301 64 307 62C314 59 319 62 326 65C341 79 355 98 367 114C389 141 407 183 423 215C417 230 415 243 414 257C411 288 411 320 417 353C423 375 432 400 452 414C476 431 538 412 553 397C567 387 574 372 573 355C571 320 546 272 529 243L520 222C510 204 500 187 490 169C487 168 486 166 485 162C509 147 536 163 554 181C571 193 583 210 593 229C611 261 638 255 618 219C606 192 589 171 564 155C536 132 501 118 467 140ZM440 263L447 282L456 312L460 328C488 436 424 330 440 263Z"  horiz-adv-x="541" vert-adv-y="1000"  />

      
      <glyph glyph-name="uni78" unicode="&#x78;" d="M123 68C123 63 124 59 124 55C129 18 176-2 227-1C323 2 349 83 397 153C403 163 440 218 438 230C438 234 435 237 430 237C424 238 419 237 415 232C397 221 381 203 370 186C360 166 314 80 289 69C277 64 267 68 262 79C250 95 247 116 247 134C246 159 246 184 246 209C275 246 306 282 337 319C352 336 397 386 401 411C403 420 405 442 390 445L389 445L389 443C342 388 292 332 245 274C245 305 244 333 241 360C240 375 238 395 228 407C191 446 122 394 101 371L101 371L101 369C103 315 63 231 40 183C38 177 40 171 46 171C59 170 71 188 74 197C91 229 104 259 118 289C119 271 118 253 118 237C116 202 118 168 119 134L96 109C69 79 33 39 2 14C-26-4 32-5 53 9C71 18 107 50 123 68Z"  horiz-adv-x="369" vert-adv-y="1000"  />

      
      <glyph glyph-name="uni79" unicode="&#x79;" d="M313 128C320 142 327 155 328 159C349 214 371 270 399 325L399 325C399 325 424 381 443 412C399 435 320 429 295 383C272 326 247 270 223 214C206 180 170 99 138 76C93 39 125 128 129 141C143 187 163 232 185 272L184 272L200 319C203 331 205 341 205 355C205 373 199 390 186 401C170 419 136 428 107 424C105 399 88 358 84 354C84 349 84 349 84 347L81 336C72 314 61 287 52 266L52 266C31 225 18 184 7 140C0 111-4 75 2 45C10 21 27 4 52 0C68-1 83-1 99 3C89-1 81-8 72-14C15-48-42-96-46-145C-51-192-13-246 39-244C105-242 155-184 186-133C213-95 236-46 257 0C302 8 342 29 377 65C399 85 412 111 428 136C438 152 448 171 456 190C457 195 459 200 456 206C453 209 451 209 448 210C444 210 443 206 442 203C411 151 368 90 318 57C305 48 288 41 274 40C286 70 299 99 313 128ZM120-23C101-61 80-106 54-142C44-165-14-220 10-153C30-98 74-56 120-23Z"  horiz-adv-x="387" vert-adv-y="1000"  />

      
      <glyph glyph-name="uni7a" unicode="&#x7a;" d="M353 316C372 343 399 386 399 419C399 426 395 434 388 433C381 433 376 430 373 424C372 419 369 411 364 406C354 394 335 390 320 387C302 382 282 393 267 405C253 416 230 432 208 434C187 436 167 425 150 413C129 397 112 377 95 358C80 336 68 314 60 288C52 270 47 247 56 229C62 213 70 209 84 211C95 212 105 218 107 230C108 238 105 241 97 246C95 247 88 252 89 257C96 301 116 336 167 335C200 335 230 322 256 300C257 298 257 298 258 298C240 282 222 267 202 255C161 228 117 193 86 159C82 157 80 153 80 149C79 141 82 136 89 135C95 135 98 138 104 141L124 167C149 175 178 183 204 181C265 163 182 50 170 26C150 17 124 3 97-15C77-28 56-42 37-58C-23-110-55-247 68-244C131-242 182-184 212-134C239-96 262-47 282-1C329 7 369 27 404 63C422 83 439 109 453 134C464 150 474 169 482 187C483 192 484 197 482 203C480 206 477 206 474 207C469 207 467 203 466 200C436 149 394 88 342 55C330 46 315 39 299 38C337 121 379 219 243 220C229 220 212 219 199 215C208 220 218 223 227 229C256 241 282 258 309 276C319 283 345 302 352 315C354 316 353 316 353 316ZM147-24C126-62 106-107 82-143C70-165 15-220 37-154C59-99 99-57 147-24Z"  horiz-adv-x="378" vert-adv-y="1000"  />

      
      <glyph glyph-name="uni44" unicode="&#x44;" d="M185 24C205 2 232-8 267-9C272-9 277-11 281-9C289-8 293-4 288 3C253 68 254 138 272 204C289 201 307 197 326 191C423 159 428 193 340 229C329 233 296 248 285 245C310 314 346 378 370 428C390 467 408 500 423 525L423 525L424 525L426 527C438 549 448 566 455 579C460 586 463 591 466 597C505 645 550 659 574 646C635 617 495 272 473 226C216-380-94 16 142 179C135 121 144 67 185 24ZM463 663C442 689 394 702 328 696C274 693 236 651 224 620C217 598 220 579 232 562C242 548 250 540 261 537C268 534 275 536 281 541C288 547 291 551 291 556C293 563 288 566 279 567L271 569C260 572 253 577 254 587C254 594 260 602 270 613C279 621 293 628 305 631C380 651 339 590 321 555C288 490 246 430 210 363C187 320 167 274 154 233C148 231 142 229 137 224C5 151-55-122 72-208C351-396 574 140 623 270C674 399 704 526 698 606C690 739 548 697 463 663Z"  horiz-adv-x="604" vert-adv-y="1000"  />

      
      <glyph glyph-name="uni30" unicode="&#x30;" d="M364 631C367 614 364 593 359 565C325 433 287 321 241 233C204 158 179 112 167 93C150 66 135 49 123 43C108 38 99 45 96 65C93 84 97 114 105 153C126 237 167 346 228 481C277 586 316 643 344 650C356 655 361 647 364 631ZM358 215C377 258 394 297 407 335C455 464 473 559 462 616C457 648 438 672 402 684C367 699 329 697 289 682C250 667 210 632 167 578C128 529 92 469 62 402C34 340 16 273 9 205C1 137 2 89 15 59C28 26 56 7 97 0C144-9 189 4 235 38C276 70 318 129 358 215Z"  horiz-adv-x="485" vert-adv-y="1000"  />

      
      <glyph glyph-name="uni31" unicode="&#x31;" d="M218 327C283 474 335 582 379 650C383 656 387 660 390 666C395 678 395 684 388 689C379 695 363 696 336 692C310 689 287 680 270 667L81 564C73 551 67 539 66 528C65 517 64 511 64 508C64 503 66 500 68 501C75 504 118 525 193 564C129 414 84 306 59 245C36 182 20 139 14 113C5 80 1 55 3 40C5 27 15 16 32 5C53-7 74-8 98 2C114 72 154 181 218 327Z"  horiz-adv-x="252" vert-adv-y="1000"  />

      
      <glyph glyph-name="uni32" unicode="&#x32;" d="M308 590C331 610 352 616 369 611C393 605 395 576 377 525C359 473 322 410 268 335C219 272 173 224 132 187C64 129 23 86 11 58C0 32 0 11 10-2C82 2 148 3 204 3C263 2 303-3 328-14C346 7 353 35 352 75C352 101 342 119 322 129C308 135 289 139 264 139C237 139 204 137 168 136C289 233 371 310 414 368C502 492 536 583 508 644C491 680 461 697 417 694C380 692 339 677 295 648C238 611 201 566 181 513C180 507 180 500 181 492C184 482 187 475 192 470C207 459 224 469 245 504C265 543 286 572 308 590Z"  horiz-adv-x="463" vert-adv-y="1000"  />

      
      <glyph glyph-name="uni33" unicode="&#x33;" d="M301 595C328 617 354 629 376 629C400 627 408 611 400 580C394 551 374 518 339 483C311 455 285 434 261 420C248 414 232 408 215 402C201 398 194 394 190 391C183 385 180 376 182 366C183 354 189 346 200 344C211 338 234 348 268 364C286 367 298 364 304 354C310 340 309 319 301 289C292 255 275 221 250 183C211 124 173 91 137 82C124 80 113 84 107 99C101 113 100 134 107 157C115 190 124 213 131 223C132 225 133 230 132 233C131 240 124 243 110 243C92 243 74 236 58 221C36 206 22 181 12 148C0 112 1 80 17 51C34 21 63 4 105-1C156-7 203 2 250 25C306 53 351 103 382 169C415 238 429 289 425 326C422 355 406 373 378 379C363 382 348 385 333 386C362 402 385 417 405 434C452 470 483 512 500 557C515 603 508 641 476 666C443 694 401 699 346 682C275 660 217 616 177 552C168 539 165 524 163 511C161 485 174 475 202 485C236 531 268 568 301 595Z"  horiz-adv-x="492" vert-adv-y="1000"  />

      
      <glyph glyph-name="uni34" unicode="&#x34;" d="M294 500L251 416C231 378 210 333 190 288L77 288ZM240 112L280 202C279 201 291 202 315 202C330 203 340 205 342 205C346 207 353 214 363 227C389 258 399 278 394 286L316 286C406 488 458 601 472 630C484 652 493 666 501 674C498 680 491 684 484 689C467 697 447 696 424 688C406 679 388 664 370 638L82 361C46 326-26 247 14 195C23 184 65 183 145 188C135 164 125 145 118 129C102 93 97 63 105 37C108 20 119 9 140 3C151 0 174-2 204-2C207 18 218 56 240 112Z"  horiz-adv-x="445" vert-adv-y="1000"  />

      
      <glyph glyph-name="uni35" unicode="&#x35;" d="M159 380C161 361 168 349 176 348C179 348 182 349 186 350C200 361 218 368 240 373C279 382 300 368 299 331C296 307 287 277 268 235C245 188 223 153 197 129C170 101 146 89 128 91C108 92 103 107 109 136C117 177 134 209 156 237C162 247 159 255 150 262C140 267 129 270 116 266C98 263 81 253 62 235C20 193 0 139 7 75C8 43 30 21 72 7C114-8 158-4 203 16C303 65 374 146 416 261C439 326 444 375 431 408C417 444 383 455 328 444L234 422L242 440C257 465 289 519 338 603C386 588 429 581 464 583C489 584 513 599 534 627C556 653 564 672 562 683C559 689 557 691 555 690C552 690 546 689 538 684C519 677 499 673 481 674C472 674 457 677 439 679L390 688C350 692 321 691 301 684Z"  horiz-adv-x="487" vert-adv-y="1000"  />

      
      <glyph glyph-name="uni36" unicode="&#x36;" d="M263 411C272 410 273 394 269 367C246 282 216 188 189 141C171 106 157 87 145 86C134 83 128 87 123 98C119 110 121 131 127 159C141 215 173 297 206 357C228 398 247 416 263 411ZM397 632C414 627 422 613 425 592C425 581 428 575 437 570C444 568 452 569 460 578C473 594 474 614 462 642C457 656 447 666 433 677C413 690 389 695 357 692C288 688 216 623 141 497C62 359 16 248 8 161C0 82 16 30 55 9C79-2 110-4 146 3C193 14 237 39 273 84C310 128 341 181 362 244C379 294 389 335 390 369C392 437 372 473 326 477C305 481 281 470 254 450C240 440 228 431 218 420C231 452 254 498 287 551C325 616 362 644 397 632Z"  horiz-adv-x="475" vert-adv-y="1000"  />

      
      <glyph glyph-name="uni37" unicode="&#x37;" d="M324 552C248 457 188 379 148 319C98 245 56 177 25 116C4 80 1 51 13 32C24 10 55 0 109-1C128-1 138-1 140 0C151 58 185 146 244 262C291 355 336 443 402 527C445 582 494 647 495 688C495 696 492 706 480 704C473 702 466 699 463 692C461 688 457 677 452 673C442 660 419 653 402 650C379 646 356 657 336 672C318 685 293 702 266 704C242 707 217 695 196 680C171 664 150 642 132 617C113 594 99 568 88 541C81 519 75 494 85 473C91 458 101 450 118 452C132 455 140 461 146 474C147 482 142 488 135 493C132 494 123 499 124 504C134 553 159 594 218 593C259 593 294 578 323 552Z"  horiz-adv-x="375" vert-adv-y="1000"  />

      
      <glyph glyph-name="uni38" unicode="&#x38;" d="M443 596C441 570 425 543 401 511C377 490 352 468 323 446C319 458 316 467 315 475C310 498 312 524 320 551C335 617 464 720 443 596ZM188 498C181 447 186 401 199 356C174 338 158 328 154 323C101 279 65 244 45 215C25 187 11 154 6 118C-3 75 6 41 30 23C55 4 93-4 144-1C196 3 244 16 288 40C329 64 358 98 376 142C390 179 394 217 389 253C387 277 370 325 341 401L412 464C433 483 454 504 472 528C494 560 506 589 507 613C507 676 462 702 370 694C325 690 286 671 252 635C216 598 194 552 188 498ZM146 209C173 233 198 260 227 286L227 284C250 215 258 164 252 131C246 107 235 87 212 71C193 55 173 47 150 49C108 49 90 71 97 116C102 145 120 175 146 209Z"  horiz-adv-x="457" vert-adv-y="1000"  />

      
      <glyph glyph-name="uni39" unicode="&#x39;" d="M230 332C220 335 219 350 226 378C246 463 252 477 277 527C427 826 374 535 287 387C264 348 246 328 230 332ZM80 59C63 65 53 77 52 100C51 110 48 117 39 119C32 123 22 122 16 114C2 99 1 77 12 50C19 35 29 23 43 15C63 2 88-3 118-1C188 4 260 70 333 195C413 332 458 445 467 531C475 611 459 662 419 683C396 695 366 697 328 690C280 679 238 652 202 608C166 565 136 512 115 447C97 399 87 357 86 321C83 255 104 219 148 215C170 213 195 220 222 241C235 252 248 262 256 272C244 238 222 194 189 140C149 75 113 47 80 59Z"  horiz-adv-x="477" vert-adv-y="1000"  />

      
      <glyph glyph-name="uni21" unicode="&#x21;" d="M108 213C107 206 110 199 114 195C118 189 126 188 138 191C154 197 163 205 169 215C292 493 373 666 372 677C370 686 360 693 346 695C330 696 311 695 289 688C268 684 251 668 238 639C231 624 225 610 222 596ZM132 119C124 133 111 140 97 140C84 140 71 133 57 119C46 107 41 90 37 71C35 51 38 37 48 22C55 9 66 3 80 3C96 3 108 9 119 22C133 37 140 51 143 71C144 90 141 107 132 119Z"  horiz-adv-x="393" vert-adv-y="1000"  />

      
      <glyph glyph-name="uni23" unicode="&#x23;" d="M1 284L101 284L70 218C39 144 31 83 41 34C46 0 63-23 88-36C96-39 103-41 113-42C114-42 117-42 120-42C122-44 124-44 125-42L129-42C127-34 127-23 126-14C125 25 136 81 159 156C166 175 171 193 176 207C187 235 197 259 210 284L305 284L275 218C245 144 238 83 247 34C252 0 268-23 294-36C301-39 308-41 317-42C319-42 322-42 324-42C328-44 329-44 330-42L335-42C332-34 332-23 332-14C330 25 341 81 364 156C370 175 376 193 382 207C391 235 402 259 413 284L558 284L558 307L425 307C440 342 455 373 473 407L558 407L558 432L483 432C522 504 561 581 601 653C620 687 604 706 568 700C536 694 513 679 489 662C444 589 403 511 368 432L278 432C317 504 357 581 397 653C416 687 400 706 363 700C332 694 308 679 283 662C239 589 199 511 162 432L1 432L1 407L153 407L110 307L1 307ZM358 407L315 307L221 307C235 342 251 373 266 407Z"  horiz-adv-x="597" vert-adv-y="1000"  />

      
      <glyph glyph-name="uni24" unicode="&#x24;" d="M284 578C287 600 299 619 308 632C318 643 328 648 339 644C321 596 303 550 285 503C281 536 281 558 284 578ZM214 210C223 171 224 138 220 111C215 94 206 79 195 70C181 61 168 59 156 61ZM364 593C365 544 364 509 360 493C354 478 351 468 348 467C357 465 369 465 382 466C406 468 424 481 435 502C450 528 454 562 449 600C442 643 428 672 401 686C432 750 384 745 360 698C323 703 287 695 254 678C215 655 186 618 168 568C150 511 143 456 152 402C156 385 166 353 183 304L195 271L123 85C115 100 108 117 103 137C89 207 91 265 110 313C96 315 82 315 69 311C37 300 17 275 5 233C-8 188-5 147 9 106C25 63 55 33 95 12C60-83 97-51 131-3L150-7C207-18 254-1 290 44C321 83 336 135 338 199C338 233 326 307 301 425Z"  horiz-adv-x="477" vert-adv-y="1000"  />

      
      <glyph glyph-name="uni26" unicode="&#x26;" d="M439 412C431 413 423 415 413 420C76 553 93-157 421 101C314 174 334 306 425 378C452 400 481 410 507 408C541 405 562 389 572 366C598 323 584 253 558 195C547 168 528 135 503 107C550 91 590 99 614 107C663 122 683 89 626 70C590 59 538 51 476 73C5-442-219 454 306 484C270 503 252 578 324 633C318 640 317 642 316 652C314 662 314 676 318 688C326 719 361 704 357 686C352 674 352 666 354 654C412 693 472 710 531 704C592 702 615 669 610 637C601 597 550 554 476 556C452 556 424 562 399 570C399 570 385 577 385 576C353 516 399 500 449 456L449 456C449 456 485 428 477 417C470 403 439 412 439 412ZM536 266C547 385 371 253 467 146C504 178 530 216 536 266ZM425 598C587 568 564 765 402 607C401 606 429 599 425 598Z"  horiz-adv-x="636" vert-adv-y="1000"  />

      
      <glyph glyph-name="uni25" unicode="&#x25;" d="M226 666C228 659 228 649 226 637C213 577 197 529 174 488C144 434 122 407 112 403C103 401 96 405 93 412C89 421 89 434 93 451C99 491 116 540 149 599C173 647 193 672 211 675C218 676 221 674 226 666ZM530 266C517 208 502 156 478 118C448 65 427 37 417 34C408 30 402 34 399 43C396 51 396 65 398 83C404 119 423 169 452 228C476 277 496 302 515 304C523 306 527 303 530 296C532 288 532 280 530 266ZM594 290C587 303 572 314 550 319C525 326 502 324 476 319C426 304 383 262 351 195C338 168 330 135 330 106C328 75 335 53 345 40C355 27 375 17 404 13C432 10 461 17 489 30C529 53 557 97 577 164C599 223 604 262 594 290ZM186 402C223 422 254 466 275 534C283 558 291 581 293 604C311 597 334 594 356 598C388 604 415 614 440 627C363 521 223 324 21 38C8 27 3 17 3 9C1-6 33-4 92 17C432 451 602 676 601 687C599 697 582 702 549 701C515 701 493 695 482 683C460 668 431 654 391 642C360 634 327 637 292 654L291 660C283 675 269 683 246 688C220 696 197 695 173 688C122 675 80 634 46 563C33 536 25 508 24 473C24 445 30 423 42 409C52 396 71 387 99 383C128 380 158 386 186 402Z"  horiz-adv-x="636" vert-adv-y="1000"  />

      
      <glyph glyph-name="uni28" unicode="&#x28;" d="M356 535C374 570 429 645 467 659C496 668 513 656 522 674C531 689 437 723 352 666C288 622 232 540 193 473C157 412 126 355 104 302C78 249 54 191 34 129C13 65-8-17 19-62C53-118 174-86 180-69C189-51 160-64 138-54C112-41 129 34 139 70C161 129 180 180 202 216C251 323 295 434 356 535Z"  horiz-adv-x="322" vert-adv-y="1000"  />

      
      <glyph glyph-name="uni29" unicode="&#x29;" d="M332 535C308 434 260 323 219 216C209 180 186 129 156 70C138 34 90-41 53-54C24-64 7-51-2-69C-8-86 86-118 168-62C229-17 281 65 311 129C344 191 371 249 389 302C410 355 427 412 443 473C460 540 475 622 443 666C408 723 289 689 282 674C275 656 303 668 324 659C352 645 339 570 332 535Z"  horiz-adv-x="463" vert-adv-y="1000"  />

      
      <glyph glyph-name="uni2a" unicode="&#x2a;" d="M221 590C213 584 231 619 275 687C270 695 257 697 239 696C218 694 207 693 205 687L172 590L86 645C80 641 74 634 70 622C64 611 63 598 63 581L149 550L52 440C66 429 81 426 93 427C106 428 114 429 116 430L180 520L235 421C246 418 255 421 267 428C284 440 292 447 291 453C291 455 267 488 218 547L311 562C318 570 324 578 328 589C338 606 339 619 332 626C265 605 228 592 221 590Z"  horiz-adv-x="381" vert-adv-y="1000"  />

      
      <glyph glyph-name="uni2b" unicode="&#x2b;" d="M285 253L115 254C103 234 104 216 116 198C122 191 129 186 137 181L257 180L201 17C214 2 234-2 256 3C279 10 298 21 307 34L355 178L520 176C538 190 541 205 533 223C526 239 517 249 502 251L380 252L404 318C417 351 427 386 442 422C418 433 391 433 368 421C354 415 343 408 336 400Z"  horiz-adv-x="679" vert-adv-y="1000"  />

      
      <glyph glyph-name="uni2d" unicode="&#x2d;" d="M178 199C181 191 186 186 192 182L471 176C481 190 484 205 480 223C475 239 468 249 457 251L176 256C168 234 168 216 178 199Z"  horiz-adv-x="680" vert-adv-y="1000"  />

      
      <glyph glyph-name="uni2f" unicode="&#x2f;" d="M57 10C70 20 84 29 96 43L540 672C546 697 538 707 517 696C496 688 477 672 460 649L7 12C14-6 27-6 57 10Z"  horiz-adv-x="590" vert-adv-y="1000"  />

      
      <glyph glyph-name="uni3c" unicode="&#x3c;" d="M200 124C208 118 230 115 263 115C293 114 308 117 311 122C313 127 250 186 123 301C325 450 425 527 425 531C424 536 408 540 377 538C344 538 322 535 313 529L267 496C227 465 166 415 76 343C41 317 37 288 64 258L165 160Z"  horiz-adv-x="501" vert-adv-y="1000"  />

      
      <glyph glyph-name="uni3d" unicode="&#x3d;" d="M116 286C121 277 127 271 133 268L449 260C462 276 466 292 461 307C454 324 445 334 434 336L115 341C105 321 107 302 116 286ZM116 155C121 148 127 143 133 138L449 133C462 147 466 161 461 180C454 196 445 205 434 208L115 212C105 191 107 172 116 155Z"  horiz-adv-x="566" vert-adv-y="1000"  />

      
      <glyph glyph-name="uni5e" unicode="&#x5e;" d="M163 548C201 613 222 640 225 633C226 627 236 596 252 533C264 473 273 445 277 445C284 445 308 447 350 449L269 689C241 700 222 697 209 687C197 677 139 604 37 464C40 456 43 453 50 449C65 443 84 443 109 451C127 485 146 518 163 548Z"  horiz-adv-x="392" vert-adv-y="1000"  />

      
      <glyph glyph-name="uni40" unicode="&#x40;" d="M469 12C503 21 534 41 570 73C611 114 639 161 654 217C687 330 674 418 618 477C589 511 542 530 478 537C395 550 311 533 230 488C146 440 84 366 42 268C8 182-5 99 4 17C13-61 45-121 104-170C166-219 235-236 311-215C383-200 440-167 482-121C510-93 528-63 533-35C538-21 534-12 530-10C524-8 517-14 506-30C487-58 452-85 400-111C367-129 330-139 289-141C231-143 187-121 155-81C117-35 103 30 108 115C116 197 140 269 182 334C220 400 268 443 325 466C380 493 440 494 498 471C554 449 588 407 597 337C609 276 597 217 569 164C549 128 526 100 504 76L504 76C495 70 440 34 431 56C427 63 431 75 431 83C434 100 441 119 448 135C463 174 479 215 497 254L497 254L534 342C532 345 528 346 525 347C511 354 498 355 484 355C470 355 455 351 443 345C331 389 246 284 204 188C191 155 180 126 172 92C168 72 167 45 182 28C201 3 244-4 271 8C303 21 326 65 345 92C343 71 343 44 358 27C389-5 431 1 469 12ZM325 209C329 218 396 349 419 322C411 301 400 268 388 233C360 159 311 66 274 49C265 44 266 63 266 68C267 101 309 180 325 209Z"  horiz-adv-x="719" vert-adv-y="1000"  />

      
      <glyph glyph-name="uni3f" unicode="&#x3f;" d="M156 119C147 133 135 140 121 140C106 140 93 133 80 119C67 107 60 90 59 71C56 51 59 37 67 22C78 9 88 3 104 3C119 3 131 9 143 22C156 37 162 51 164 71C166 90 164 107 156 119ZM304 584C335 611 362 622 388 622C416 621 424 604 417 568C408 535 384 499 347 456C316 427 285 403 258 387C243 380 227 372 206 366C192 363 183 358 178 354C151 326 142 251 131 213C129 206 134 199 136 195C142 189 149 188 159 191C176 197 184 205 189 215C214 269 215 299 267 323L340 349C373 366 397 385 420 403C473 444 508 491 528 541C544 594 536 635 500 665C466 695 417 701 355 682C274 657 210 610 164 536C157 520 150 506 149 490C147 457 161 448 193 457C231 513 267 554 304 584Z"  horiz-adv-x="481" vert-adv-y="1000"  />

      
      <glyph glyph-name="uni2c" unicode="&#x2c;" d="M143 119C134 133 122 140 107 140C94 140 81 133 68 119C55 107 49 90 47 71C43 51 48 37 58 22C62 17 66 10 73 8C86-21 50-64 50-64L70-88C70-88 98-64 127-4C143 32 168 83 143 119Z"  horiz-adv-x="174" vert-adv-y="1000"  />

      
      <glyph glyph-name="uni2e" unicode="&#x2e;" d="M131 119C121 133 111 140 96 140C81 140 68 133 56 119C44 107 37 90 36 71C33 51 36 37 44 22C54 9 65 3 78 3C94 3 108 9 119 22C131 37 138 51 139 71C142 90 139 107 131 119Z"  horiz-adv-x="164" vert-adv-y="1000"  />

      
      <glyph glyph-name="uni7b" unicode="&#x7b;" d="M276 498C302 526 433 642 482 659C511 668 530 656 537 674C546 689 453 723 368 666C316 632 280 581 237 533C209 501 178 469 150 444C149 512 119 534 86 533C12 528-41 399 39 359C51 355 66 351 81 354C62 303 44 240 32 176C17 81-22-104 133-86C166-83 190-78 195-69C197-64 53-4 86 168C98 237 122 309 137 359C138 364 139 367 140 371C188 399 232 447 276 498Z"  horiz-adv-x="299" vert-adv-y="1000"  />

      
      <glyph glyph-name="uni7d" unicode="&#x7d;" d="M318 498C322 447 324 399 350 371C347 367 344 364 343 359C316 309 276 237 230 168C116-4-78-64-81-69C-84-78-64-83-31-86C109-104 227 81 290 176C333 240 369 303 396 354C442 350 539 366 551 434C564 491 506 542 401 444C394 469 393 501 390 533C389 581 396 632 373 666C336 723 219 689 211 674C204 656 233 668 253 659C288 642 317 526 318 498Z"  horiz-adv-x="578" vert-adv-y="1000"  />

      
      <glyph glyph-name="uni02D9" unicode="&#x02D9;" d="M120 605C111 617 100 622 88 622C74 622 62 617 52 605C39 591 34 576 32 558C30 542 32 528 40 515C48 503 60 498 73 498C87 498 97 503 110 515C120 528 126 542 130 558C132 576 129 591 120 605Z"  horiz-adv-x="192" vert-adv-y="1000"  />

      
      <glyph glyph-name="uni02DA" unicode="&#x02DA;" d="M137 556C138 571 136 587 129 599C118 615 104 622 89 622C72 622 58 615 48 604L48 604L48 604C38 591 32 577 29 561C28 547 31 533 39 519C48 506 60 498 76 498C95 498 109 506 119 516L119 516C130 528 133 541 137 556ZM110 589C115 580 117 570 115 558C113 548 110 537 103 530C96 521 88 519 76 519C68 519 61 521 56 530C51 537 49 548 51 558C52 570 56 580 65 589C72 597 79 599 89 599C97 599 104 597 110 589Z"  horiz-adv-x="178" vert-adv-y="1000"  />

      
      <glyph glyph-name="uni02C7" unicode="&#x02C7;" d="M65 606L128 493C128 493 142 454 183 485C224 515 331 610 331 610C331 610 338 617 322 621C302 625 275 632 251 607C227 581 182 526 182 526C182 526 177 516 167 534C157 553 139 607 139 607C139 607 124 627 96 627C69 627 60 611 65 606Z"  horiz-adv-x="377" vert-adv-y="1000"  />

      
      <glyph glyph-name="uni02DD" unicode="&#x02DD;" d="M96 480C96 480 94 462 107 461C120 457 199 541 219 564C240 591 255 627 225 639C196 647 188 641 160 605C132 568 96 480 96 480ZM211 480C211 480 246 568 275 605C304 641 311 647 339 639C371 627 353 591 333 564C313 541 234 457 222 461C208 462 211 480 211 480Z"  horiz-adv-x="443" vert-adv-y="1000"  />

      
      <glyph glyph-name="uni02D8" unicode="&#x02D8;" d="M63 597C43 582 56 558 56 558C56 558 92 483 194 483C296 480 341 553 345 561C350 571 350 582 341 590C328 594 316 587 316 587C316 587 280 560 201 556C120 554 63 597 63 597Z"  horiz-adv-x="433" vert-adv-y="1000"  />

      
      <glyph glyph-name="unib4" unicode="&#xb4;" d="M181 519L404 576C404 576 412 582 405 592C396 601 326 632 301 627C277 625 137 553 137 553C137 553 130 547 132 543C136 541 168 520 168 520C168 520 178 518 181 519Z"  horiz-adv-x="541" vert-adv-y="1000"  />

      
      <glyph glyph-name="uni02DC" unicode="&#x02DC;" d="M429 601C346 553 193 627 141 527C134 517 134 508 148 500C157 492 171 499 171 499C254 549 379 447 436 560C436 560 448 584 429 601Z"  horiz-adv-x="523" vert-adv-y="1000"  />

      
      <glyph glyph-name="uni5b" unicode="&#x5b;" d="M76 201C41 140 14 72 5 6C-1-31 2-57 15-71C18-73 24-77 28-78C28-78 30-78 33-78C79-78 120-80 165-21C193 13 188 37 156 33C147 34 115 34 72 35C83 62 96 93 112 128C182 289 275 438 362 586C401 578 431 574 439 571C466 565 482 589 475 625C465 680 428 706 387 697C367 695 348 678 327 661Z"  horiz-adv-x="419" vert-adv-y="1000"  />

      
      <glyph glyph-name="uni5d" unicode="&#x5d;" d="M6 661C-15 678-34 695-53 697C-94 706-131 680-141 625C-148 590-132 566-105 572C-97 575-67 579-29 587C58 439 150 291 220 131C236 96 249 65 260 38C217 37 185 37 176 36C145 40 140 17 167-17C212-76 253-74 299-74C302-74 304-74 304-74C308-73 314-69 317-67C330-53 333-27 327 10C318 75 291 143 256 204Z"  horiz-adv-x="378" vert-adv-y="1000"  />

      
      <glyph glyph-name="uni5c" unicode="&#x5c;" d="M418 0C449-16 462-16 469 2L10 648C-8 672-27 688-48 696C-69 707-78 697-71 672L379 34C391 19 405 10 418 0Z"  horiz-adv-x="485" vert-adv-y="1000"  />

      
      <glyph glyph-name="uni5f" unicode="&#x5f;" d="M760-11C788 0 794 7 785 18L95 22C69 21 48 17 31 9C13 1 16-8 37-14L716-19C733-18 747-14 760-11Z"  horiz-adv-x="833" vert-adv-y="1000"  />

      
      <glyph glyph-name="uni22" unicode="&#x22;" d="M30 361C30 361 28 329 44 327C59 320 155 468 179 509C204 556 222 620 186 641C151 655 141 644 108 581C74 516 30 361 30 361ZM169 361C169 361 211 516 246 581C281 644 289 655 323 641C362 620 340 556 316 509C292 468 197 320 182 327C165 329 169 361 169 361Z"  horiz-adv-x="252" vert-adv-y="1000"  />

      
      <glyph glyph-name="uni27" unicode="&#x27;" d="M178 361C178 361 176 329 192 327C207 320 303 468 327 509C352 556 370 620 334 641C299 655 289 644 256 581C222 516 178 361 178 361Z"  horiz-adv-x="211" vert-adv-y="1000"  />

      
      <glyph glyph-name="uni02C6" unicode="&#x02C6;" d="M326 530L262 645C262 645 247 685 205 653C163 623 54 525 54 525C54 525 47 518 63 514C84 510 111 503 136 529C160 555 206 611 206 611C206 611 211 622 222 603C232 584 250 529 250 529C250 529 266 508 294 508C322 508 331 524 326 530Z"  horiz-adv-x="429" vert-adv-y="1000"  />

      
      <glyph glyph-name="unia8" unicode="&#xa8;" d="M285 605C276 617 265 622 253 622C239 622 227 617 217 605C204 591 199 576 197 558C195 542 197 528 205 515C213 503 225 498 238 498C252 498 262 503 275 515C285 528 291 542 295 558C297 576 294 591 285 605ZM120 605C111 617 100 622 88 622C74 622 62 617 52 605C39 591 34 576 32 558C30 542 32 528 40 515C48 503 60 498 73 498C87 498 97 503 110 515C120 528 126 542 130 558C132 576 129 591 120 605Z"  horiz-adv-x="348" vert-adv-y="1000"  />

      
      <glyph glyph-name="uni3a" unicode="&#x3a;" d="M196 457C186 471 176 478 161 478C146 478 133 471 121 457C109 445 102 428 101 409C98 389 101 375 109 360C119 347 130 341 143 341C159 341 173 347 184 360C196 375 203 389 204 409C207 428 204 445 196 457ZM138 119C128 133 118 140 103 140C88 140 75 133 63 119C51 107 44 90 43 71C40 51 43 37 51 22C61 9 72 3 85 3C101 3 115 9 126 22C138 37 145 51 146 71C149 90 146 107 138 119Z"  horiz-adv-x="267" vert-adv-y="1000"  />

      
      <glyph glyph-name="uni3b" unicode="&#x3b;" d="M195 457C185 471 175 478 160 478C145 478 132 471 120 457C108 445 101 428 100 409C97 389 100 375 108 360C118 347 129 341 142 341C158 341 172 347 183 360C195 375 202 389 203 409C206 428 203 445 195 457ZM149 119C140 133 128 140 113 140C100 140 87 133 74 119C61 107 55 90 53 71C49 51 54 37 64 22C68 17 72 10 79 8C92-21 56-64 56-64L76-88C76-88 104-64 133-4C149 32 174 83 149 119Z"  horiz-adv-x="253" vert-adv-y="1000"  />

      
      <glyph glyph-name="uni3e" unicode="&#x3e;" d="M197 160L352 258C394 288 405 317 386 343C333 415 299 465 277 496L250 529C243 535 224 538 190 538C160 540 143 536 139 531C138 527 192 450 316 301C126 186 31 127 30 122C27 117 44 114 73 115C106 115 131 118 143 124Z"  horiz-adv-x="487" vert-adv-y="1000"  />

      
      <glyph glyph-name="uni0160" unicode="&#x0160;" d="M334 622C330 632 328 634 327 646C325 661 327 677 331 694C338 727 375 713 371 691C367 672 365 664 370 650C426 698 488 719 550 714C612 708 636 669 628 628C621 579 569 527 491 530C468 530 440 537 414 549C414 547 398 556 398 554C368 479 414 461 462 412L464 410C628 255 524 46 352-45C-82-277-110 443 257 301C318 276 407 209 266 253C7 335 49 34 209 58C350 79 464 237 377 366C318 449 240 537 334 622ZM440 582C605 544 582 785 416 592C414 590 442 582 440 582ZM452 867L515 754C515 754 529 715 570 746C611 776 718 871 718 871C718 871 725 878 709 882C689 886 662 893 638 868C614 842 569 787 569 787C569 787 564 777 554 795C544 814 526 868 526 868C526 868 511 888 483 888C456 888 447 872 452 867Z"  horiz-adv-x="561" vert-adv-y="1000"  />

      
      <glyph glyph-name="uni0161" unicode="&#x0161;" d="M193 37C210 39 224 43 236 47C274 68 315 117 337 155L364 203C369 213 382 221 395 220C413 220 386 181 383 177C340 106 298 36 215 8C177-4 138-6 97 0C43 5 18 56 7 106C1 130 1 158 7 183C11 206 19 237 44 246C56 249 63 249 72 243C97 293 129 345 161 394C182 421 205 446 236 466C241 468 244 473 251 474L254 475C274 486 300 489 323 486C353 482 379 451 374 419C372 412 368 407 362 405C356 402 351 403 347 405C340 407 335 412 334 415C333 424 334 431 337 436C340 439 340 442 335 445C316 457 307 403 307 394C306 359 304 322 300 287C289 189 276 100 193 37ZM193 380C190 376 187 371 183 367C146 323 106 244 79 191C71 167 58 147 37 131C35 112 39 96 53 83C62 73 76 65 89 68C108 70 120 89 130 107C157 158 173 252 183 309L189 350C190 360 191 370 193 380ZM234 663L297 550C297 550 311 511 352 542C393 572 500 667 500 667C500 667 507 674 491 678C471 682 444 689 420 664C396 638 351 583 351 583C351 583 346 573 336 591C326 610 308 664 308 664C308 664 293 684 265 684C238 684 229 668 234 663Z"  horiz-adv-x="335" vert-adv-y="1000"  />

      
      <glyph glyph-name="uni0178" unicode="&#x0178;" d="M540 625C482 596 375 239 325 200C272 125 158 79 134 194C122 253 135 343 177 426L177 426L218 517C267 599 238 708 120 700C67 697 29 656 20 624C13 602 16 582 29 563C38 551 47 543 58 540C67 537 74 540 80 546C87 549 90 554 88 560C88 566 85 569 77 569L68 570C56 573 51 580 51 589C51 598 55 607 64 616C74 625 87 631 100 635C176 656 140 589 124 554L67 429L67 429C-66 184-7-101 274 95C268 83 261 73 255 63C252 56 248 49 244 42L238 42C135 36 28-16 3-104C-26-219 31-313 174-202C252-139 286-91 329-23L333-17C336-17 339-17 342-17C402-15 457 10 503 52C527 73 548 101 566 125C578 142 594 161 602 181C605 185 608 191 605 196C604 199 602 200 599 200C595 200 592 196 588 193C551 141 499 76 441 43C418 29 387 19 362 29C386 72 401 101 401 101L399 101L455 206L647 640C611 646 577 641 540 625ZM227 1C185-75 120-163 83-196C25-250 64-38 227 1ZM541 805C532 817 521 822 509 822C495 822 483 817 473 805C460 791 455 776 453 758C451 742 453 728 461 715C469 703 481 698 494 698C508 698 518 703 531 715C541 728 547 742 551 758C553 776 550 791 541 805ZM376 805C367 817 356 822 344 822C330 822 318 817 308 805C295 791 290 776 288 758C286 742 288 728 296 715C304 703 316 698 329 698C343 698 353 703 366 715C376 728 382 742 386 758C388 776 385 791 376 805Z"  horiz-adv-x="518" vert-adv-y="1000"  />

      
      <glyph glyph-name="uni017D" unicode="&#x017D;" d="M262 89C266 91 270 92 275 92C328 106 380 85 427 58C453 42 482 24 509 8C515 5 535-7 541-10C567-16 593-13 617 0C628 5 638 13 646 23L648 23L649 23C654 22 656 17 658 13C664 1 658-13 654-23C603-112 514-110 427-84C373-65 298-38 243-34C188-28 134-42 85-65C80-68 66-79 59-79C48-84 23-95 11-94C1-91 8-79 11-73C27-51 46-32 71-22C80-15 89-7 99 3C126 33 153 63 179 95C237 167 295 237 354 308C397 361 443 414 486 468C508 491 530 520 553 541C553 543 551 543 551 544C537 557 509 566 491 572C460 582 428 588 394 588C323 589 264 566 251 490C250 484 259 479 263 476C270 472 275 465 273 456C269 443 259 437 245 436C228 433 217 440 211 455C195 492 208 533 224 566C248 616 286 652 334 677C390 706 447 708 505 685L538 669C547 665 557 661 567 656C589 649 612 644 634 650C652 653 675 661 689 674C694 680 698 689 699 695C702 703 708 707 718 708C728 710 731 700 731 691C731 635 686 577 652 540ZM202 806L265 693C265 693 279 654 320 685C361 715 468 810 468 810C468 810 475 817 459 821C439 825 412 832 388 807C364 781 319 726 319 726C319 726 314 716 304 734C294 753 276 807 276 807C276 807 261 827 233 827C206 827 197 811 202 806Z"  horiz-adv-x="673" vert-adv-y="1000"  />

      
      <glyph glyph-name="unidd" unicode="&#xdd;" d="M540 625C482 596 375 239 325 200C272 125 158 79 134 194C122 253 135 343 177 426L177 426L218 517C267 599 238 708 120 700C67 697 29 656 20 624C13 602 16 582 29 563C38 551 47 543 58 540C67 537 74 540 80 546C87 549 90 554 88 560C88 566 85 569 77 569L68 570C56 573 51 580 51 589C51 598 55 607 64 616C74 625 87 631 100 635C176 656 140 589 124 554L67 429L67 429C-66 184-7-101 274 95C268 83 261 73 255 63C252 56 248 49 244 42L238 42C135 36 28-16 3-104C-26-219 31-313 174-202C252-139 286-91 329-23L333-17C336-17 339-17 342-17C402-15 457 10 503 52C527 73 548 101 566 125C578 142 594 161 602 181C605 185 608 191 605 196C604 199 602 200 599 200C595 200 592 196 588 193C551 141 499 76 441 43C418 29 387 19 362 29C386 72 401 101 401 101L399 101L455 206L647 640C611 646 577 641 540 625ZM227 1C185-75 120-163 83-196C25-250 64-38 227 1ZM357 719L580 776C580 776 588 782 581 792C572 801 502 832 477 827C453 825 313 753 313 753C313 753 306 747 308 743C312 741 344 720 344 720C344 720 354 718 357 719Z"  horiz-adv-x="518" vert-adv-y="1000"  />

      
      <glyph glyph-name="unidc" unicode="&#xdc;" d="M114-103C190-104 289-31 325 62C397 221 506 453 591 605C610 640 602 656 563 649C531 643 501 631 475 615C403 500 324 302 270 184C236 112 204 5 114-10C19-28 96 122 109 152L274 517C322 599 292 708 175 700C122 697 84 656 75 624C69 602 72 582 86 563C95 551 103 543 114 540C122 537 129 540 136 546C141 549 144 554 144 560C144 566 141 569 134 569L123 570C111 573 105 580 106 589C106 598 111 607 120 616C131 625 142 631 156 635C230 656 195 589 178 554L38 243C-6 145-42-97 114-103ZM544 805C535 817 524 822 512 822C498 822 486 817 476 805C463 791 458 776 456 758C454 742 456 728 464 715C472 703 484 698 497 698C511 698 521 703 534 715C544 728 550 742 554 758C556 776 553 791 544 805ZM379 805C370 817 359 822 347 822C333 822 321 817 311 805C298 791 293 776 291 758C289 742 291 728 299 715C307 703 319 698 332 698C346 698 356 703 369 715C379 728 385 742 389 758C391 776 388 791 379 805Z"  horiz-adv-x="492" vert-adv-y="1000"  />

      
      <glyph glyph-name="unidb" unicode="&#xdb;" d="M114-103C190-104 289-31 325 62C397 221 506 453 591 605C610 640 602 656 563 649C531 643 501 631 475 615C403 500 324 302 270 184C236 112 204 5 114-10C19-28 96 122 109 152L274 517C322 599 292 708 175 700C122 697 84 656 75 624C69 602 72 582 86 563C95 551 103 543 114 540C122 537 129 540 136 546C141 549 144 554 144 560C144 566 141 569 134 569L123 570C111 573 105 580 106 589C106 598 111 607 120 616C131 625 142 631 156 635C230 656 195 589 178 554L38 243C-6 145-42-97 114-103ZM555 730L491 845C491 845 476 885 434 853C392 823 283 725 283 725C283 725 276 718 292 714C313 710 340 703 365 729C389 755 435 811 435 811C435 811 440 822 451 803C461 784 479 729 479 729C479 729 495 708 523 708C551 708 560 724 555 730Z"  horiz-adv-x="492" vert-adv-y="1000"  />

      
      <glyph glyph-name="unida" unicode="&#xda;" d="M114-103C190-104 289-31 325 62C397 221 506 453 591 605C610 640 602 656 563 649C531 643 501 631 475 615C403 500 324 302 270 184C236 112 204 5 114-10C19-28 96 122 109 152L274 517C322 599 292 708 175 700C122 697 84 656 75 624C69 602 72 582 86 563C95 551 103 543 114 540C122 537 129 540 136 546C141 549 144 554 144 560C144 566 141 569 134 569L123 570C111 573 105 580 106 589C106 598 111 607 120 616C131 625 142 631 156 635C230 656 195 589 178 554L38 243C-6 145-42-97 114-103ZM367 719L590 776C590 776 598 782 591 792C582 801 512 832 487 827C463 825 323 753 323 753C323 753 316 747 318 743C322 741 354 720 354 720C354 720 364 718 367 719Z"  horiz-adv-x="492" vert-adv-y="1000"  />

      
      <glyph glyph-name="uni60" unicode="&#x60;" d="M361 519C364 518 374 520 374 520C374 520 406 541 410 543C412 547 405 553 405 553C405 553 265 625 241 627C216 632 146 601 137 592C130 582 138 576 138 576Z"  horiz-adv-x="546" vert-adv-y="1000"  />

      
      <glyph glyph-name="unid9" unicode="&#xd9;" d="M114-103C190-104 289-31 325 62C397 221 506 453 591 605C610 640 602 656 563 649C531 643 501 631 475 615C403 500 324 302 270 184C236 112 204 5 114-10C19-28 96 122 109 152L274 517C322 599 292 708 175 700C122 697 84 656 75 624C69 602 72 582 86 563C95 551 103 543 114 540C122 537 129 540 136 546C141 549 144 554 144 560C144 566 141 569 134 569L123 570C111 573 105 580 106 589C106 598 111 607 120 616C131 625 142 631 156 635C230 656 195 589 178 554L38 243C-6 145-42-97 114-103ZM460 719C463 718 473 720 473 720C473 720 505 741 509 743C511 747 504 753 504 753C504 753 364 825 340 827C315 832 245 801 236 792C229 782 237 776 237 776Z"  horiz-adv-x="492" vert-adv-y="1000"  />

      
      <glyph glyph-name="unid6" unicode="&#xd6;" d="M348 206C321 208 295 215 277 226C265 231 256 239 250 246C244 253 242 257 242 260C216 297 219 344 246 381C274 422 328 456 406 462C455 464 452 428 406 423C291 409 277 262 386 242L386 241C558 248 604 628 450 652C277 682 75 195 122 40C166-104 335 100 364 201C358 201 352 205 348 206ZM56 402C112 554 298 746 480 693C679 636 659 307 513 222C506 219 501 216 493 213C312-280-166-182 56 402ZM564 813C555 825 544 830 532 830C518 830 506 825 496 813C483 799 478 784 476 766C474 750 476 736 484 723C492 711 504 706 517 706C531 706 541 711 554 723C564 736 570 750 574 766C576 784 573 799 564 813ZM399 813C390 825 379 830 367 830C353 830 341 825 331 813C318 799 313 784 311 766C309 750 311 736 319 723C327 711 339 706 352 706C366 706 376 711 389 723C399 736 405 750 409 766C411 784 408 799 399 813Z"  horiz-adv-x="511" vert-adv-y="1000"  />

      
      <glyph glyph-name="unid5" unicode="&#xd5;" d="M348 206C321 208 295 215 277 226C265 231 256 239 250 246C244 253 242 257 242 260C216 297 219 344 246 381C274 422 328 456 406 462C455 464 452 428 406 423C291 409 277 262 386 242L386 241C558 248 604 628 450 652C277 682 75 195 122 40C166-104 335 100 364 201C358 201 352 205 348 206ZM56 402C112 554 298 746 480 693C679 636 659 307 513 222C506 219 501 216 493 213C312-280-166-182 56 402ZM587 809C504 761 351 835 299 735C292 725 292 716 306 708C315 700 329 707 329 707C412 757 537 655 594 768C594 768 606 792 587 809Z"  horiz-adv-x="511" vert-adv-y="1000"  />

      
      <glyph glyph-name="unid4" unicode="&#xd4;" d="M348 206C321 208 295 215 277 226C265 231 256 239 250 246C244 253 242 257 242 260C216 297 219 344 246 381C274 422 328 456 406 462C455 464 452 428 406 423C291 409 277 262 386 242L386 241C558 248 604 628 450 652C277 682 75 195 122 40C166-104 335 100 364 201C358 201 352 205 348 206ZM56 402C112 554 298 746 480 693C679 636 659 307 513 222C506 219 501 216 493 213C312-280-166-182 56 402ZM555 730L491 845C491 845 476 885 434 853C392 823 283 725 283 725C283 725 276 718 292 714C313 710 340 703 365 729C389 755 435 811 435 811C435 811 440 822 451 803C461 784 479 729 479 729C479 729 495 708 523 708C551 708 560 724 555 730Z"  horiz-adv-x="511" vert-adv-y="1000"  />

      
      <glyph glyph-name="unid3" unicode="&#xd3;" d="M348 206C321 208 295 215 277 226C265 231 256 239 250 246C244 253 242 257 242 260C216 297 219 344 246 381C274 422 328 456 406 462C455 464 452 428 406 423C291 409 277 262 386 242L386 241C558 248 604 628 450 652C277 682 75 195 122 40C166-104 335 100 364 201C358 201 352 205 348 206ZM56 402C112 554 298 746 480 693C679 636 659 307 513 222C506 219 501 216 493 213C312-280-166-182 56 402ZM375 719L598 776C598 776 606 782 599 792C590 801 520 832 495 827C471 825 331 753 331 753C331 753 324 747 326 743C330 741 362 720 362 720C362 720 372 718 375 719Z"  horiz-adv-x="511" vert-adv-y="1000"  />

      
      <glyph glyph-name="unid2" unicode="&#xd2;" d="M348 206C321 208 295 215 277 226C265 231 256 239 250 246C244 253 242 257 242 260C216 297 219 344 246 381C274 422 328 456 406 462C455 464 452 428 406 423C291 409 277 262 386 242L386 241C558 248 604 628 450 652C277 682 75 195 122 40C166-104 335 100 364 201C358 201 352 205 348 206ZM56 402C112 554 298 746 480 693C679 636 659 307 513 222C506 219 501 216 493 213C312-280-166-182 56 402ZM547 719C550 718 560 720 560 720C560 720 592 741 596 743C598 747 591 753 591 753C591 753 451 825 427 827C402 832 332 801 323 792C316 782 324 776 324 776Z"  horiz-adv-x="511" vert-adv-y="1000"  />

      
      <glyph glyph-name="unid1" unicode="&#xd1;" d="M92 71C28 59 48 138 56 169C62 183 74 208 94 238C114 269 125 285 125 288C127 291 125 292 119 293C116 293 111 292 104 289C90 283 72 271 56 256C10 209-5 150 10 82C20 44 41 18 71 4C191-50 278 62 319 150L383 271C407 315 438 352 478 398C548 474 621 564 657 585C664 591 667 590 662 584L636 530L570 406C506 281 515 299 493 238C454 132 435 44 442-22C447-61 465-86 501-99C512-104 523-104 533-98C548-94 552-86 549-76C543-58 546-29 556 15C569 77 596 147 634 230C692 358 712 392 799 547C869 673 743 770 636 645C557 558 501 462 443 401L432 389C461 443 478 480 485 490C533 568 505 671 387 660C333 656 294 621 286 591C280 569 283 551 296 536C305 522 316 514 326 511C333 510 340 511 346 515C352 518 357 527 357 531C357 537 352 540 344 541L334 541C323 544 317 550 319 558C319 566 323 576 332 584C341 592 355 598 369 601C442 621 408 557 390 527L260 263C229 195 183 85 92 71ZM812 866C729 818 576 892 524 792C517 782 517 773 531 765C540 757 554 764 554 764C637 814 762 712 819 825C819 825 831 849 812 866Z"  horiz-adv-x="753" vert-adv-y="1000"  />

      
      <glyph glyph-name="unicf" unicode="&#xcf;" d="M87 67C27 53 46 139 56 172C61 187 72 213 93 245C112 278 122 299 122 301C123 306 122 307 117 307C115 308 110 307 102 304C86 297 71 283 56 266C9 215-8 151 9 80C18 38 36 9 69-6C215-37 281 63 315 151L484 517C531 601 501 712 384 702C331 697 293 656 284 627C279 604 281 584 293 566C303 553 312 544 324 543C331 540 338 541 345 547C350 550 353 555 353 561C353 568 350 573 343 574L333 574C321 578 313 583 313 591C315 599 321 608 330 620C340 628 352 634 367 638C440 656 403 591 389 555L258 273C225 200 178 82 87 67ZM553 830C544 842 533 847 521 847C507 847 495 842 485 830C472 816 467 801 465 783C463 767 465 753 473 740C481 728 493 723 506 723C520 723 530 728 543 740C553 753 559 767 563 783C565 801 562 816 553 830ZM388 830C379 842 368 847 356 847C342 847 330 842 320 830C307 816 302 801 300 783C298 767 300 753 308 740C316 728 328 723 341 723C355 723 365 728 378 740C388 753 394 767 398 783C400 801 397 816 388 830Z"  horiz-adv-x="454" vert-adv-y="1000"  />

      
      <glyph glyph-name="unice" unicode="&#xce;" d="M87 67C27 53 46 139 56 172C61 187 72 213 93 245C112 278 122 299 122 301C123 306 122 307 117 307C115 308 110 307 102 304C86 297 71 283 56 266C9 215-8 151 9 80C18 38 36 9 69-6C215-37 281 63 315 151L484 517C531 601 501 712 384 702C331 697 293 656 284 627C279 604 281 584 293 566C303 553 312 544 324 543C331 540 338 541 345 547C350 550 353 555 353 561C353 568 350 573 343 574L333 574C321 578 313 583 313 591C315 599 321 608 330 620C340 628 352 634 367 638C440 656 403 591 389 555L258 273C225 200 178 82 87 67ZM541 730L477 845C477 845 462 885 420 853C378 823 269 725 269 725C269 725 262 718 278 714C299 710 326 703 351 729C375 755 421 811 421 811C421 811 426 822 437 803C447 784 465 729 465 729C465 729 481 708 509 708C537 708 546 724 541 730Z"  horiz-adv-x="454" vert-adv-y="1000"  />

      
      <glyph glyph-name="uni017E" unicode="&#x017E;" d="M353 316C353 316 354 316 352 315C345 302 319 283 309 276C282 258 256 241 227 229C218 223 208 220 199 215C212 219 229 220 243 220C379 219 337 121 299 38C315 39 330 46 342 55C394 88 436 149 466 200C467 203 469 207 474 207C477 206 480 206 482 203C484 197 483 192 482 187C474 169 464 150 453 134C439 109 422 83 404 63C369 27 329 7 282-1C262-47 239-96 212-134C182-184 131-242 68-244C-55-247-23-110 37-58C56-42 77-28 97-15C124 3 150 17 170 26C182 50 265 163 204 181C178 183 149 175 124 167L104 141C98 138 95 135 89 135C82 136 79 141 80 149C80 153 82 157 86 159C117 193 161 228 202 255C222 267 240 282 258 298C257 298 257 298 256 300C230 322 200 335 167 335C116 336 96 301 89 257C88 252 95 247 97 246C105 241 108 238 107 230C105 218 95 212 84 211C70 209 62 213 56 229C47 247 52 270 60 288C68 314 80 336 95 358C112 377 129 397 150 413C167 425 187 436 208 434C230 432 253 416 267 405C282 393 302 382 320 387C335 390 354 394 364 406C369 411 372 419 373 424C376 430 381 433 388 433C395 434 399 426 399 419C399 386 372 343 353 316ZM147-24C99-57 59-99 37-154C15-220 70-165 82-143C106-107 126-62 147-24ZM160 606L223 493C223 493 237 454 278 485C319 515 426 610 426 610C426 610 433 617 417 621C397 625 370 632 346 607C322 581 277 526 277 526C277 526 272 516 262 534C252 553 234 607 234 607C234 607 219 627 191 627C164 627 155 611 160 606Z"  horiz-adv-x="406" vert-adv-y="1000"  />

      
      <glyph glyph-name="unicd" unicode="&#xcd;" d="M87 67C27 53 46 139 56 172C61 187 72 213 93 245C112 278 122 299 122 301C123 306 122 307 117 307C115 308 110 307 102 304C86 297 71 283 56 266C9 215-8 151 9 80C18 38 36 9 69-6C215-37 281 63 315 151L484 517C531 601 501 712 384 702C331 697 293 656 284 627C279 604 281 584 293 566C303 553 312 544 324 543C331 540 338 541 345 547C350 550 353 555 353 561C353 568 350 573 343 574L333 574C321 578 313 583 313 591C315 599 321 608 330 620C340 628 352 634 367 638C440 656 403 591 389 555L258 273C225 200 178 82 87 67ZM379 719L602 776C602 776 610 782 603 792C594 801 524 832 499 827C475 825 335 753 335 753C335 753 328 747 330 743C334 741 366 720 366 720C366 720 376 718 379 719Z"  horiz-adv-x="454" vert-adv-y="1000"  />

      
      <glyph glyph-name="unicc" unicode="&#xcc;" d="M87 67C27 53 46 139 56 172C61 187 72 213 93 245C112 278 122 299 122 301C123 306 122 307 117 307C115 308 110 307 102 304C86 297 71 283 56 266C9 215-8 151 9 80C18 38 36 9 69-6C215-37 281 63 315 151L484 517C531 601 501 712 384 702C331 697 293 656 284 627C279 604 281 584 293 566C303 553 312 544 324 543C331 540 338 541 345 547C350 550 353 555 353 561C353 568 350 573 343 574L333 574C321 578 313 583 313 591C315 599 321 608 330 620C340 628 352 634 367 638C440 656 403 591 389 555L258 273C225 200 178 82 87 67ZM480 719C483 718 493 720 493 720C493 720 525 741 529 743C531 747 524 753 524 753C524 753 384 825 360 827C335 832 265 801 256 792C249 782 257 776 257 776Z"  horiz-adv-x="454" vert-adv-y="1000"  />

      
      <glyph glyph-name="unicb" unicode="&#xcb;" d="M478 339C469 341 461 344 453 349C221 456 40-134 299-98C384-88 472-30 525 35C543 56 558 78 563 101C573 129 591 147 604 144C611 143 615 129 608 101C587 19 523-81 440-153C325-251 163-302 60-179C19-131 1-67 3-9C14 197 191 418 341 426C309 449 287 541 360 605C355 617 353 619 351 630C349 644 351 660 356 677C364 710 400 695 395 674C390 655 389 646 393 634C450 679 512 702 573 696C635 692 659 652 652 613C644 563 592 512 515 515C491 515 464 522 439 530C439 530 421 540 421 539C392 464 439 446 486 396L487 395C487 395 525 361 518 344C509 328 479 341 479 341ZM464 565C630 527 605 768 440 576C439 574 465 566 464 565ZM699 822C690 834 679 839 667 839C653 839 641 834 631 822C618 808 613 793 611 775C609 759 611 745 619 732C627 720 639 715 652 715C666 715 676 720 689 732C699 745 705 759 709 775C711 793 708 808 699 822ZM534 822C525 834 514 839 502 839C488 839 476 834 466 822C453 808 448 793 446 775C444 759 446 745 454 732C462 720 474 715 487 715C501 715 511 720 524 732C534 745 540 759 544 775C546 793 543 808 534 822Z"  horiz-adv-x="516" vert-adv-y="1000"  />

      
      <glyph glyph-name="unica" unicode="&#xca;" d="M478 339C469 341 461 344 453 349C221 456 40-134 299-98C384-88 472-30 525 35C543 56 558 78 563 101C573 129 591 147 604 144C611 143 615 129 608 101C587 19 523-81 440-153C325-251 163-302 60-179C19-131 1-67 3-9C14 197 191 418 341 426C309 449 287 541 360 605C355 617 353 619 351 630C349 644 351 660 356 677C364 710 400 695 395 674C390 655 389 646 393 634C450 679 512 702 573 696C635 692 659 652 652 613C644 563 592 512 515 515C491 515 464 522 439 530C439 530 421 540 421 539C392 464 439 446 486 396L487 395C487 395 525 361 518 344C509 328 479 341 479 341ZM464 565C630 527 605 768 440 576C439 574 465 566 464 565ZM673 730L609 845C609 845 594 885 552 853C510 823 401 725 401 725C401 725 394 718 410 714C431 710 458 703 483 729C507 755 553 811 553 811C553 811 558 822 569 803C579 784 597 729 597 729C597 729 613 708 641 708C669 708 678 724 673 730Z"  horiz-adv-x="516" vert-adv-y="1000"  />

      
      <glyph glyph-name="unic9" unicode="&#xc9;" d="M478 339C469 341 461 344 453 349C221 456 40-134 299-98C384-88 472-30 525 35C543 56 558 78 563 101C573 129 591 147 604 144C611 143 615 129 608 101C587 19 523-81 440-153C325-251 163-302 60-179C19-131 1-67 3-9C14 197 191 418 341 426C309 449 287 541 360 605C355 617 353 619 351 630C349 644 351 660 356 677C364 710 400 695 395 674C390 655 389 646 393 634C450 679 512 702 573 696C635 692 659 652 652 613C644 563 592 512 515 515C491 515 464 522 439 530C439 530 421 540 421 539C392 464 439 446 486 396L487 395C487 395 525 361 518 344C509 328 479 341 479 341ZM464 565C630 527 605 768 440 576C439 574 465 566 464 565ZM551 719L774 776C774 776 782 782 775 792C766 801 696 832 671 827C647 825 507 753 507 753C507 753 500 747 502 743C506 741 538 720 538 720C538 720 548 718 551 719Z"  horiz-adv-x="516" vert-adv-y="1000"  />

      
      <glyph glyph-name="unic8" unicode="&#xc8;" d="M478 339C469 341 461 344 453 349C221 456 40-134 299-98C384-88 472-30 525 35C543 56 558 78 563 101C573 129 591 147 604 144C611 143 615 129 608 101C587 19 523-81 440-153C325-251 163-302 60-179C19-131 1-67 3-9C14 197 191 418 341 426C309 449 287 541 360 605C355 617 353 619 351 630C349 644 351 660 356 677C364 710 400 695 395 674C390 655 389 646 393 634C450 679 512 702 573 696C635 692 659 652 652 613C644 563 592 512 515 515C491 515 464 522 439 530C439 530 421 540 421 539C392 464 439 446 486 396L487 395C487 395 525 361 518 344C509 328 479 341 479 341ZM464 565C630 527 605 768 440 576C439 574 465 566 464 565ZM609 719C612 718 622 720 622 720C622 720 654 741 658 743C660 747 653 753 653 753C653 753 513 825 489 827C464 832 394 801 385 792C378 782 386 776 386 776Z"  horiz-adv-x="516" vert-adv-y="1000"  />

      
      <glyph glyph-name="unic4" unicode="&#xc4;" d="M70 28C85 5 111-5 146-6C152-7 156-7 160-6C171-5 174 0 171 7C135 103 172 213 221 305C251 273 278 223 293 143L292 131C272 28 231-198 357-244C371-248 381-248 392-242C403-238 405-227 401-218C392-202 392-173 391-129C377 183 487 383 543 640C549 665 524 699 500 696C424 689 271 705 227 623C217 601 214 580 222 565C229 551 237 544 247 540C254 538 261 539 269 546C276 548 280 554 280 561C282 566 279 569 273 571L262 571C253 575 248 580 250 590C253 597 258 605 271 616C282 624 296 633 311 636C388 654 334 593 311 559C276 510 237 463 199 416C169 427 137 428 109 418C63 402 26 363 9 306C-6 251 0 178 46 103C46 74 53 49 70 28ZM257 369C271 391 283 413 297 429C348 506 383 562 412 583C420 587 446 600 443 594C395 481 350 367 318 250C302 302 280 341 257 369ZM145 341C104 284 73 228 56 175C27 271 80 341 145 341ZM596 841C587 853 576 858 564 858C550 858 538 853 528 841C515 827 510 812 508 794C506 778 508 764 516 751C524 739 536 734 549 734C563 734 573 739 586 751C596 764 602 778 606 794C608 812 605 827 596 841ZM431 841C422 853 411 858 399 858C385 858 373 853 363 841C350 827 345 812 343 794C341 778 343 764 351 751C359 739 371 734 384 734C398 734 408 739 421 751C431 764 437 778 441 794C443 812 440 827 431 841Z"  horiz-adv-x="496" vert-adv-y="1000"  />

      
      <glyph glyph-name="unic3" unicode="&#xc3;" d="M70 28C85 5 111-5 146-6C152-7 156-7 160-6C171-5 174 0 171 7C135 103 172 213 221 305C251 273 278 223 293 143L292 131C272 28 231-198 357-244C371-248 381-248 392-242C403-238 405-227 401-218C392-202 392-173 391-129C377 183 487 383 543 640C549 665 524 699 500 696C424 689 271 705 227 623C217 601 214 580 222 565C229 551 237 544 247 540C254 538 261 539 269 546C276 548 280 554 280 561C282 566 279 569 273 571L262 571C253 575 248 580 250 590C253 597 258 605 271 616C282 624 296 633 311 636C388 654 334 593 311 559C276 510 237 463 199 416C169 427 137 428 109 418C63 402 26 363 9 306C-6 251 0 178 46 103C46 74 53 49 70 28ZM257 369C271 391 283 413 297 429C348 506 383 562 412 583C420 587 446 600 443 594C395 481 350 367 318 250C302 302 280 341 257 369ZM145 341C104 284 73 228 56 175C27 271 80 341 145 341ZM655 840C572 792 419 866 367 766C360 756 360 747 374 739C383 731 397 738 397 738C480 788 605 686 662 799C662 799 674 823 655 840Z"  horiz-adv-x="496" vert-adv-y="1000"  />

      
      <glyph glyph-name="unic2" unicode="&#xc2;" d="M70 28C85 5 111-5 146-6C152-7 156-7 160-6C171-5 174 0 171 7C135 103 172 213 221 305C251 273 278 223 293 143L292 131C272 28 231-198 357-244C371-248 381-248 392-242C403-238 405-227 401-218C392-202 392-173 391-129C377 183 487 383 543 640C549 665 524 699 500 696C424 689 271 705 227 623C217 601 214 580 222 565C229 551 237 544 247 540C254 538 261 539 269 546C276 548 280 554 280 561C282 566 279 569 273 571L262 571C253 575 248 580 250 590C253 597 258 605 271 616C282 624 296 633 311 636C388 654 334 593 311 559C276 510 237 463 199 416C169 427 137 428 109 418C63 402 26 363 9 306C-6 251 0 178 46 103C46 74 53 49 70 28ZM257 369C271 391 283 413 297 429C348 506 383 562 412 583C420 587 446 600 443 594C395 481 350 367 318 250C302 302 280 341 257 369ZM145 341C104 284 73 228 56 175C27 271 80 341 145 341ZM596 734L532 849C532 849 517 889 475 857C433 827 324 729 324 729C324 729 317 722 333 718C354 714 381 707 406 733C430 759 476 815 476 815C476 815 481 826 492 807C502 788 520 733 520 733C520 733 536 712 564 712C592 712 601 728 596 734Z"  horiz-adv-x="496" vert-adv-y="1000"  />

      
      <glyph glyph-name="unic1" unicode="&#xc1;" d="M70 28C85 5 111-5 146-6C152-7 156-7 160-6C171-5 174 0 171 7C135 103 172 213 221 305C251 273 278 223 293 143L292 131C272 28 231-198 357-244C371-248 381-248 392-242C403-238 405-227 401-218C392-202 392-173 391-129C377 183 487 383 543 640C549 665 524 699 500 696C424 689 271 705 227 623C217 601 214 580 222 565C229 551 237 544 247 540C254 538 261 539 269 546C276 548 280 554 280 561C282 566 279 569 273 571L262 571C253 575 248 580 250 590C253 597 258 605 271 616C282 624 296 633 311 636C388 654 334 593 311 559C276 510 237 463 199 416C169 427 137 428 109 418C63 402 26 363 9 306C-6 251 0 178 46 103C46 74 53 49 70 28ZM257 369C271 391 283 413 297 429C348 506 383 562 412 583C420 587 446 600 443 594C395 481 350 367 318 250C302 302 280 341 257 369ZM145 341C104 284 73 228 56 175C27 271 80 341 145 341ZM433 719L656 776C656 776 664 782 657 792C648 801 578 832 553 827C529 825 389 753 389 753C389 753 382 747 384 743C388 741 420 720 420 720C420 720 430 718 433 719Z"  horiz-adv-x="496" vert-adv-y="1000"  />

      
      <glyph glyph-name="unic0" unicode="&#xc0;" d="M70 28C85 5 111-5 146-6C152-7 156-7 160-6C171-5 174 0 171 7C135 103 172 213 221 305C251 273 278 223 293 143L292 131C272 28 231-198 357-244C371-248 381-248 392-242C403-238 405-227 401-218C392-202 392-173 391-129C377 183 487 383 543 640C549 665 524 699 500 696C424 689 271 705 227 623C217 601 214 580 222 565C229 551 237 544 247 540C254 538 261 539 269 546C276 548 280 554 280 561C282 566 279 569 273 571L262 571C253 575 248 580 250 590C253 597 258 605 271 616C282 624 296 633 311 636C388 654 334 593 311 559C276 510 237 463 199 416C169 427 137 428 109 418C63 402 26 363 9 306C-6 251 0 178 46 103C46 74 53 49 70 28ZM257 369C271 391 283 413 297 429C348 506 383 562 412 583C420 587 446 600 443 594C395 481 350 367 318 250C302 302 280 341 257 369ZM145 341C104 284 73 228 56 175C27 271 80 341 145 341ZM532 719C535 718 545 720 545 720C545 720 577 741 581 743C583 747 576 753 576 753C576 753 436 825 412 827C387 832 317 801 308 792C301 782 309 776 309 776Z"  horiz-adv-x="496" vert-adv-y="1000"  />

      
      <glyph glyph-name="unie0" unicode="&#xe0;" d="M241 108C217 74 192 22 153 7C118-10 67 0 45 31C31 52 31 83 36 108C44 145 57 184 74 219C123 336 225 462 359 411C372 416 391 420 408 421C423 421 440 419 457 413C461 412 468 408 470 407L422 300L422 300C402 255 383 206 364 159C356 139 346 116 344 95C341 88 340 70 344 63C347 55 357 54 365 55C383 57 403 88 411 99C429 126 443 157 461 183L492 237L492 237C497 239 505 241 508 234C513 218 484 163 475 150C453 107 423 63 388 31C344-6 300-17 257 29C240 50 240 81 241 108ZM215 247C197 211 151 117 148 79C147 70 147 50 159 56C204 75 259 187 290 274C307 318 321 358 331 384C303 414 223 259 215 247ZM407 519C410 518 420 520 420 520C420 520 452 541 456 543C458 547 451 553 451 553C451 553 311 625 287 627C262 632 192 601 183 592C176 582 184 576 184 576Z"  horiz-adv-x="403" vert-adv-y="1000"  />

      
      <glyph glyph-name="unie1" unicode="&#xe1;" d="M241 108C217 74 192 22 153 7C118-10 67 0 45 31C31 52 31 83 36 108C44 145 57 184 74 219C123 336 225 462 359 411C372 416 391 420 408 421C423 421 440 419 457 413C461 412 468 408 470 407L422 300L422 300C402 255 383 206 364 159C356 139 346 116 344 95C341 88 340 70 344 63C347 55 357 54 365 55C383 57 403 88 411 99C429 126 443 157 461 183L492 237L492 237C497 239 505 241 508 234C513 218 484 163 475 150C453 107 423 63 388 31C344-6 300-17 257 29C240 50 240 81 241 108ZM215 247C197 211 151 117 148 79C147 70 147 50 159 56C204 75 259 187 290 274C307 318 321 358 331 384C303 414 223 259 215 247ZM315 519L538 576C538 576 546 582 539 592C530 601 460 632 435 627C411 625 271 553 271 553C271 553 264 547 266 543C270 541 302 520 302 520C302 520 312 518 315 519Z"  horiz-adv-x="403" vert-adv-y="1000"  />

      
      <glyph glyph-name="unie2" unicode="&#xe2;" d="M241 108C217 74 192 22 153 7C118-10 67 0 45 31C31 52 31 83 36 108C44 145 57 184 74 219C123 336 225 462 359 411C372 416 391 420 408 421C423 421 440 419 457 413C461 412 468 408 470 407L422 300L422 300C402 255 383 206 364 159C356 139 346 116 344 95C341 88 340 70 344 63C347 55 357 54 365 55C383 57 403 88 411 99C429 126 443 157 461 183L492 237L492 237C497 239 505 241 508 234C513 218 484 163 475 150C453 107 423 63 388 31C344-6 300-17 257 29C240 50 240 81 241 108ZM215 247C197 211 151 117 148 79C147 70 147 50 159 56C204 75 259 187 290 274C307 318 321 358 331 384C303 414 223 259 215 247ZM434 530L370 645C370 645 355 685 313 653C271 623 162 525 162 525C162 525 155 518 171 514C192 510 219 503 244 529C268 555 314 611 314 611C314 611 319 622 330 603C340 584 358 529 358 529C358 529 374 508 402 508C430 508 439 524 434 530Z"  horiz-adv-x="403" vert-adv-y="1000"  />

      
      <glyph glyph-name="unie3" unicode="&#xe3;" d="M241 108C217 74 192 22 153 7C118-10 67 0 45 31C31 52 31 83 36 108C44 145 57 184 74 219C123 336 225 462 359 411C372 416 391 420 408 421C423 421 440 419 457 413C461 412 468 408 470 407L422 300L422 300C402 255 383 206 364 159C356 139 346 116 344 95C341 88 340 70 344 63C347 55 357 54 365 55C383 57 403 88 411 99C429 126 443 157 461 183L492 237L492 237C497 239 505 241 508 234C513 218 484 163 475 150C453 107 423 63 388 31C344-6 300-17 257 29C240 50 240 81 241 108ZM215 247C197 211 151 117 148 79C147 70 147 50 159 56C204 75 259 187 290 274C307 318 321 358 331 384C303 414 223 259 215 247ZM476 601C393 553 240 627 188 527C181 517 181 508 195 500C204 492 218 499 218 499C301 549 426 447 483 560C483 560 495 584 476 601Z"  horiz-adv-x="403" vert-adv-y="1000"  />

      
      <glyph glyph-name="unie4" unicode="&#xe4;" d="M241 108C217 74 192 22 153 7C118-10 67 0 45 31C31 52 31 83 36 108C44 145 57 184 74 219C123 336 225 462 359 411C372 416 391 420 408 421C423 421 440 419 457 413C461 412 468 408 470 407L422 300L422 300C402 255 383 206 364 159C356 139 346 116 344 95C341 88 340 70 344 63C347 55 357 54 365 55C383 57 403 88 411 99C429 126 443 157 461 183L492 237L492 237C497 239 505 241 508 234C513 218 484 163 475 150C453 107 423 63 388 31C344-6 300-17 257 29C240 50 240 81 241 108ZM215 247C197 211 151 117 148 79C147 70 147 50 159 56C204 75 259 187 290 274C307 318 321 358 331 384C303 414 223 259 215 247ZM471 605C462 617 451 622 439 622C425 622 413 617 403 605C390 591 385 576 383 558C381 542 383 528 391 515C399 503 411 498 424 498C438 498 448 503 461 515C471 528 477 542 481 558C483 576 480 591 471 605ZM306 605C297 617 286 622 274 622C260 622 248 617 238 605C225 591 220 576 218 558C216 542 218 528 226 515C234 503 246 498 259 498C273 498 283 503 296 515C306 528 312 542 316 558C318 576 315 591 306 605Z"  horiz-adv-x="403" vert-adv-y="1000"  />

      
      <glyph glyph-name="unie5" unicode="&#xe5;" d="M241 108C240 81 240 50 257 29C300-17 344-6 388 31C423 63 453 107 475 150C484 163 513 218 508 234C505 241 497 239 492 237L492 237L461 183C443 157 429 126 411 99C403 88 383 57 365 55C357 54 347 55 344 63C340 70 341 88 344 95C346 116 356 139 364 159C383 206 402 255 422 300L422 300L470 407C468 408 461 412 457 413C440 419 423 421 408 421C391 420 372 416 359 411C225 462 123 336 74 219C57 184 44 145 36 108C31 83 31 52 45 31C67 0 118-10 153 7C192 22 217 74 241 108ZM215 247C223 259 303 414 331 384C321 358 307 318 290 274C259 187 204 75 159 56C147 50 147 70 148 79C151 117 197 211 215 247ZM393 556C394 571 392 587 385 599C374 615 360 622 345 622C328 622 314 615 304 604L304 604L304 604C294 591 288 577 285 561C284 547 287 533 295 519C304 506 316 498 332 498C351 498 365 506 375 516L375 516C386 528 389 541 393 556ZM366 589C371 580 373 570 371 558C369 548 366 537 359 530C352 521 344 519 332 519C324 519 317 521 312 530C307 537 305 548 307 558C308 570 312 580 321 589C328 597 335 599 345 599C353 599 360 597 366 589Z"  horiz-adv-x="403" vert-adv-y="1000"  />

      
      <glyph glyph-name="unic5" unicode="&#xc5;" d="M70 28C85 5 111-5 146-6C152-7 156-7 160-6C171-5 174 0 171 7C135 103 172 213 221 305C251 273 278 223 293 143L292 131C272 28 231-198 357-244C371-248 381-248 392-242C403-238 405-227 401-218C392-202 392-173 391-129C377 183 487 383 543 640C549 665 524 699 500 696C424 689 271 705 227 623C217 601 214 580 222 565C229 551 237 544 247 540C254 538 261 539 269 546C276 548 280 554 280 561C282 566 279 569 273 571L262 571C253 575 248 580 250 590C253 597 258 605 271 616C282 624 296 633 311 636C388 654 334 593 311 559C276 510 237 463 199 416C169 427 137 428 109 418C63 402 26 363 9 306C-6 251 0 178 46 103C46 74 53 49 70 28ZM257 369C271 391 283 413 297 429C348 506 383 562 412 583C420 587 446 600 443 594C395 481 350 367 318 250C302 302 280 341 257 369ZM145 341C104 284 73 228 56 175C27 271 80 341 145 341ZM525 756C526 771 524 787 517 799C506 815 492 822 477 822C460 822 446 815 436 804L436 804L436 804C426 791 420 777 417 761C416 747 419 733 427 719C436 706 448 698 464 698C483 698 497 706 507 716L507 716C518 728 521 741 525 756ZM498 789C503 780 505 770 503 758C501 748 498 737 491 730C484 721 476 719 464 719C456 719 449 721 444 730C439 737 437 748 439 758C440 770 444 780 453 789C460 797 467 799 477 799C485 799 492 797 498 789Z"  horiz-adv-x="496" vert-adv-y="1000"  />

      
      <glyph glyph-name="unie8" unicode="&#xe8;" d="M133 189C124 160 117 128 114 97C111 84 114 74 120 62C125 54 132 45 142 42C168 31 196 42 220 55C271 88 312 149 341 200C344 203 346 207 350 207C353 206 354 206 356 203C360 197 359 192 355 187C350 169 338 150 328 134C314 109 298 83 277 63C239 22 190-1 131-4C99-5 71 2 47 20C23 37 9 57 2 87C-5 116 2 155 11 184C23 228 43 266 68 301C103 358 152 405 220 416C243 421 268 421 294 413C313 406 331 394 339 372C346 355 341 335 336 318C322 283 302 258 277 234C251 210 222 191 187 184C172 181 159 181 144 186C142 187 137 188 133 189ZM144 215C179 196 205 230 223 257C241 283 254 316 266 345C268 358 274 372 266 382C262 387 256 388 250 386C241 382 228 365 223 359C204 335 189 309 172 282C162 261 152 239 144 215ZM362 519C365 518 375 520 375 520C375 520 407 541 411 543C413 547 406 553 406 553C406 553 266 625 242 627C217 632 147 601 138 592C131 582 139 576 139 576Z"  horiz-adv-x="299" vert-adv-y="1000"  />

      
      </font>
</defs>
</svg>
